<svg width="360" height="153" viewBox="0 0 360 153" fill="none" xmlns="http://www.w3.org/2000/svg">
<g clip-path="url(#clip0_249_3787)">
<path d="M27.0386 7.16699C28.246 7.16699 28.8267 7.91519 28.8267 9.00467V11.1836C28.8267 12.214 28.2526 12.9622 27.0386 12.9622H17.7552V46.8543C17.7552 47.9438 17.1218 48.692 15.9078 48.692H12.8529C11.6455 48.692 11.0648 47.9438 11.0648 46.8543V12.9622H1.84744C0.580624 12.9622 0 12.214 0 11.1836V9.00467C0 7.91519 0.574026 7.16699 1.84744 7.16699H27.0386Z" fill="white"/>
<path d="M53.609 37.5018C53.6684 36.5239 54.3018 36.1826 55.2783 36.3533L57.8713 36.7536C59.0787 36.9243 59.6 37.7315 59.4284 38.821C58.7356 43.9271 55.0473 49.1448 45.9355 49.1448C33.6566 49.1448 30.6611 40.5996 30.6611 27.3552C30.6611 15.3118 33.6038 6.71411 45.533 6.71411C57.4622 6.71411 59.4284 15.43 59.6 26.9548V27.8737C59.6593 28.4447 59.3096 28.7335 58.6168 28.7335H37.4043C37.5165 37.1605 38.7899 43.1855 46.107 43.1855C51.524 43.1855 53.3121 40.1468 53.6024 37.5084L53.609 37.5018ZM53.2659 23.6798C53.0943 17.202 51.3657 12.3256 45.4868 12.3256C39.2583 12.3256 37.82 17.1429 37.4769 23.6798H53.2725H53.2659Z" fill="white"/>
<path d="M86.8756 35.2638C86.935 34.2333 87.74 33.7739 88.8946 33.9446L91.6064 34.404C92.7017 34.5746 93.3351 35.0931 93.2757 36.5239C92.8732 43.3495 89.759 49.1382 79.1494 49.1382C66.9299 49.1382 64.106 41.5119 64.106 28.2084C64.106 16.2241 66.8177 6.70752 79.1494 6.70752C89.9899 6.70752 93.0448 12.9031 93.3285 19.3219C93.3285 20.7001 92.7545 21.2711 91.6592 21.4418L88.8946 21.9603C87.5684 22.249 86.935 21.8487 86.935 20.9824C86.7041 16.5654 84.6851 12.6669 79.156 12.6669C71.6013 12.6669 70.9151 20.1817 70.9151 28.2084C70.9151 37.4427 71.6079 43.1723 79.156 43.1723C84.6917 43.1723 86.7107 39.7333 86.8822 35.2572L86.8756 35.2638Z" fill="white"/>
<path d="M105.317 13.7038H105.548C105.951 12.214 108.201 7.39666 115.406 7.39666C124.801 7.39666 128.206 14.0517 128.206 21.7896V46.8477C128.206 47.9372 127.632 48.6854 126.418 48.6854H123.422C122.155 48.6854 121.575 47.9372 121.575 46.8477V23.1088C121.575 18.0618 119.958 13.3626 113.849 13.3626C107.739 13.3626 105.66 19.5582 105.66 23.1679V46.8477C105.66 47.9372 105.027 48.6854 103.813 48.6854H100.758C99.5507 48.6854 98.9106 47.9372 98.9106 46.8477V1.83768C98.9106 0.748198 99.5441 0 100.758 0H103.47C104.677 0 105.317 0.748198 105.317 1.83768V13.7104V13.7038Z" fill="white"/>
<path d="M157.837 22.4197C157.837 17.3726 156.221 12.6734 150.111 12.6734C144.001 12.6734 141.923 18.5802 141.923 22.249V46.8477C141.923 47.9372 141.289 48.6854 140.075 48.6854H137.021C135.754 48.6854 135.173 47.9372 135.173 46.8477V9.00462C135.173 7.91514 135.747 7.16694 137.021 7.16694H139.383C140.709 7.16694 141.23 7.91514 141.23 9.00462V13.5332H141.52C141.863 12.0434 144.344 6.70752 151.952 6.70752C161.116 6.70752 164.521 13.3625 164.521 21.1005V46.8477C164.521 47.9372 163.947 48.6854 162.674 48.6854H159.678C158.411 48.6854 157.831 47.9372 157.831 46.8477V22.4197H157.837Z" fill="white"/>
<path d="M185.852 49.1448C175.012 49.1448 170.116 42.8376 170.116 28.0968C170.116 13.356 175.019 6.70752 185.852 6.70752C196.686 6.70752 201.529 13.3625 201.529 28.0968C201.529 42.8311 196.686 49.1448 185.852 49.1448ZM185.852 43.1789C192.081 43.1789 194.733 38.7094 194.733 28.0968C194.733 17.4842 192.081 12.6734 185.852 12.6734C179.624 12.6734 176.919 17.3726 176.919 28.0968C176.919 38.821 179.571 43.1789 185.852 43.1789Z" fill="white"/>
<path d="M207.296 1.83768C207.296 0.807267 207.817 0 209.084 0H212.139C213.406 0 213.986 0.748198 213.986 1.83768V41C213.986 42.6604 214.62 43.238 216.065 43.238C216.467 43.238 216.757 43.1789 216.929 43.1264C217.391 43.0673 217.681 43.2971 217.681 43.6974V46.8543C217.681 48.0028 217.107 48.692 215.893 48.9742C215.319 49.0858 214.567 49.1448 213.584 49.1448C209.665 49.1448 207.303 47.1365 207.303 42.667V1.83768H207.296Z" fill="white"/>
<path d="M236.749 49.1448C225.909 49.1448 221.013 42.8376 221.013 28.0968C221.013 13.356 225.916 6.70752 236.749 6.70752C247.583 6.70752 252.426 13.3625 252.426 28.0968C252.426 42.8311 247.583 49.1448 236.749 49.1448ZM236.749 43.1789C242.978 43.1789 245.63 38.7094 245.63 28.0968C245.63 17.4842 242.978 12.6734 236.749 12.6734C230.521 12.6734 227.816 17.3726 227.816 28.0968C227.816 38.821 230.468 43.1789 236.749 43.1789Z" fill="white"/>
<path d="M285.232 35.5526C285.232 43.0674 281.946 49.1448 270.993 49.1448C259.176 49.1448 257.388 42.6079 257.098 38.7685C257.038 38.0794 257.21 37.2196 258.364 36.9899L261.65 36.3598C262.917 36.0711 263.148 36.8783 263.207 37.5084C263.438 40.1468 264.995 43.704 270.986 43.704C276.977 43.704 278.713 40.324 278.713 35.4476V28.9107H278.37C278.37 28.9107 276.469 32.9798 269.607 32.9798C262.112 32.9798 256.576 27.3618 256.576 19.906C256.576 12.4503 261.65 6.71411 269.607 6.71411C277.565 6.71411 279.122 11.3608 279.122 11.3608H279.353V8.7815C279.353 7.75109 279.927 7.17353 281.141 7.17353H283.391C284.658 7.17353 285.238 7.74453 285.238 8.83401V35.5591L285.232 35.5526ZM270.993 12.214C266.322 12.214 263.214 15.3709 263.214 19.8404C263.214 24.3099 266.328 27.5258 270.993 27.5258C276.469 27.5258 278.891 23.5092 278.891 19.8404C278.891 16.1716 276.469 12.214 270.993 12.214Z" fill="white"/>
<path d="M292.087 38.9391C292.028 37.9612 292.549 37.2786 293.703 37.0489L296.415 36.5304C297.682 36.3007 298.203 36.9898 298.203 37.679C298.434 40.3173 299.873 43.6449 305.699 43.7564C311.346 43.868 313.425 40.4289 313.425 35.5591V26.7841H313.253C312.851 28.1624 310.832 32.75 303.508 32.75C294.225 32.75 290.767 26.1016 290.767 18.3571V9.01114C290.767 7.92166 291.401 7.17346 292.615 7.17346H295.61C296.818 7.17346 297.398 7.92166 297.398 9.01114V17.0379C297.398 22.0849 298.955 26.7841 305.065 26.7841C311.175 26.7841 313.135 20.5885 313.253 17.0379V9.01114C313.253 7.92166 313.827 7.17346 315.101 7.17346H318.156C319.363 7.17346 320.003 7.92166 320.003 9.01114V35.6772C320.003 43.192 316.486 49.322 305.705 49.2104C294 49.0988 292.212 42.6735 292.1 38.9456L292.087 38.9391Z" fill="white"/>
<path d="M24.3268 87.1651C24.3862 86.1347 25.1912 85.6753 26.3458 85.8459L29.0576 86.3053C30.1529 86.476 30.7863 86.9945 30.7269 88.4252C30.3244 95.2509 27.2101 101.04 16.6006 101.04C4.38107 101.04 1.55713 93.4132 1.55713 80.1097C1.55713 68.1254 4.26891 58.6089 16.6006 58.6089C27.4411 58.6089 30.496 64.8045 30.7797 71.2232C30.7797 72.6015 30.2056 73.1725 29.1104 73.3431L26.3458 73.8616C25.0196 74.1504 24.3862 73.7501 24.3862 72.8837C24.1553 68.4667 22.1363 64.5682 16.6072 64.5682C9.05246 64.5682 8.36626 72.083 8.36626 80.1097C8.36626 89.3441 9.05905 95.0737 16.6072 95.0737C22.1429 95.0737 24.1619 91.6346 24.3334 87.1586L24.3268 87.1651Z" fill="#FFE76B"/>
<path d="M50.6728 101.04C39.8322 101.04 34.9365 94.7324 34.9365 79.9916C34.9365 65.2508 39.8388 58.6023 50.6728 58.6023C61.5067 58.6023 66.3496 65.2573 66.3496 79.9916C66.3496 94.7258 61.5067 101.04 50.6728 101.04ZM50.6728 95.0737C56.9013 95.0737 59.5537 90.6042 59.5537 79.9916C59.5537 69.379 56.9013 64.5682 50.6728 64.5682C44.4442 64.5682 41.7391 69.2674 41.7391 79.9916C41.7391 90.7158 44.3915 95.0737 50.6728 95.0737Z" fill="#FFE76B"/>
<path d="M94.8262 74.321C94.8262 69.274 93.2097 64.5748 87.1 64.5748C80.9902 64.5748 78.9119 70.4816 78.9119 74.1504V98.7491C78.9119 99.8385 78.2785 100.587 77.0644 100.587H74.0095C72.7427 100.587 72.1621 99.8385 72.1621 98.7491V60.8994C72.1621 59.8099 72.7361 59.0617 74.0095 59.0617H76.3716C77.6978 59.0617 78.2191 59.8099 78.2191 60.8994V65.428H78.5094C78.8525 63.9381 81.3333 58.6023 88.9408 58.6023C98.1054 58.6023 101.51 65.2573 101.51 72.9953V98.7425C101.51 99.832 100.936 100.58 99.6626 100.58H96.6671C95.4003 100.58 94.8196 99.832 94.8196 98.7425V74.3145L94.8262 74.321Z" fill="#FFE76B"/>
<path d="M124.63 98.8607C124.339 99.8386 123.646 100.58 122.327 100.58H118.751C117.425 100.58 116.732 99.832 116.441 98.8607L105.086 60.7813C104.796 59.9215 105.198 59.0618 106.353 59.0618H110.272C111.599 59.0618 112.291 59.81 112.575 60.7813L120.763 91.1162L129.004 60.7813C129.294 59.8034 129.987 59.0618 131.313 59.0618H134.659C135.866 59.0618 136.275 59.9215 135.985 60.7813L124.63 98.8607Z" fill="#FFE76B"/>
<path d="M161.295 89.4032C161.354 88.4253 161.988 88.084 162.964 88.2546L165.557 88.655C166.765 88.8256 167.286 89.6329 167.114 90.7224C166.421 95.8285 162.733 101.046 153.621 101.046C141.342 101.046 138.347 92.501 138.347 79.2566C138.347 67.2132 141.29 58.6155 153.219 58.6155C165.148 58.6155 167.114 67.3313 167.286 78.8562V79.7751C167.345 80.3461 166.995 80.6348 166.303 80.6348H145.09C145.202 89.0619 146.476 95.0869 153.793 95.0869C159.21 95.0869 160.998 92.0481 161.288 89.4097L161.295 89.4032ZM160.952 75.5812C160.78 69.1034 159.051 64.227 153.166 64.227C146.938 64.227 145.499 69.0443 145.156 75.5812H160.952Z" fill="#FFE76B"/>
<path d="M195.703 74.321C195.703 69.274 194.087 64.5748 187.977 64.5748C181.867 64.5748 179.789 70.4816 179.789 74.1504V98.7491C179.789 99.8385 179.155 100.587 177.941 100.587H174.886C173.62 100.587 173.039 99.8385 173.039 98.7491V60.8994C173.039 59.8099 173.613 59.0617 174.886 59.0617H177.249C178.575 59.0617 179.096 59.8099 179.096 60.8994V65.428H179.386C179.729 63.9381 182.21 58.6023 189.818 58.6023C198.982 58.6023 202.387 65.2573 202.387 72.9953V98.7425C202.387 99.832 201.813 100.58 200.54 100.58H197.544C196.277 100.58 195.697 99.832 195.697 98.7425V74.3145L195.703 74.321Z" fill="#FFE76B"/>
<path d="M221.475 94.7915C222.683 94.7915 223.263 95.5397 223.263 96.5702V98.7491C223.263 99.8386 222.689 100.587 221.475 100.587H209.717C208.51 100.587 207.929 99.8386 207.929 98.7491V96.5702C207.929 95.5397 208.503 94.7915 209.717 94.7915H212.251V73.632H209.717C208.563 73.632 207.929 72.8838 207.929 71.7943V69.6153C207.929 68.5258 208.503 67.7776 209.717 67.7776H221.475C222.683 67.7776 223.263 68.5258 223.263 69.6153V71.7943C223.263 72.8838 222.689 73.632 221.475 73.632H218.941V94.7915H221.475ZM210.001 59.6393C210.001 56.8303 212.423 54.4807 215.478 54.4807C218.361 54.4807 220.835 56.8303 220.835 59.6393C220.835 62.4484 218.354 64.857 215.478 64.857C212.423 64.857 210.001 62.5074 210.001 59.6393Z" fill="#FFE76B"/>
<path d="M250.698 89.4032C250.757 88.4253 251.39 88.084 252.367 88.2546L254.96 88.655C256.167 88.8256 256.689 89.6329 256.517 90.7224C255.824 95.8285 252.136 101.046 243.024 101.046C230.745 101.046 227.75 92.501 227.75 79.2566C227.75 67.2132 230.692 58.6155 242.622 58.6155C254.551 58.6155 256.517 67.3313 256.689 78.8562V79.7751C256.748 80.3461 256.398 80.6348 255.705 80.6348H234.493C234.605 89.0619 235.878 95.0869 243.196 95.0869C248.613 95.0869 250.401 92.0481 250.691 89.4097L250.698 89.4032ZM250.355 75.5812C250.183 69.1034 248.454 64.227 242.575 64.227C236.347 64.227 234.909 69.0443 234.565 75.5812H250.361H250.355Z" fill="#FFE76B"/>
<path d="M285.113 74.321C285.113 69.274 283.496 64.5748 277.386 64.5748C271.277 64.5748 269.198 70.4816 269.198 74.1504V98.7491C269.198 99.8385 268.565 100.587 267.351 100.587H264.296C263.029 100.587 262.448 99.8385 262.448 98.7491V60.8994C262.448 59.8099 263.023 59.0617 264.296 59.0617H266.658C267.984 59.0617 268.505 59.8099 268.505 60.8994V65.428H268.796C269.139 63.9381 271.62 58.6023 279.227 58.6023C288.392 58.6023 291.796 65.2573 291.796 72.9953V98.7425C291.796 99.832 291.222 100.58 289.949 100.58H286.953C285.687 100.58 285.106 99.832 285.106 98.7425V74.3145L285.113 74.321Z" fill="#FFE76B"/>
<path d="M320.333 87.1651C320.392 86.1347 321.197 85.6753 322.352 85.8459L325.064 86.3053C326.159 86.476 326.792 86.9945 326.733 88.4252C326.331 95.2509 323.216 101.04 312.607 101.04C300.387 101.04 297.563 93.4132 297.563 80.1097C297.563 68.1254 300.275 58.6089 312.607 58.6089C323.447 58.6089 326.502 64.8045 326.786 71.2232C326.786 72.6015 326.212 73.1725 325.116 73.3431L322.352 73.8616C321.026 74.1504 320.392 73.7501 320.392 72.8837C320.161 68.4667 318.142 64.5682 312.613 64.5682C305.059 64.5682 304.372 72.083 304.372 80.1097C304.372 89.3441 305.065 95.0737 312.613 95.0737C318.149 95.0737 320.168 91.6346 320.34 87.1586L320.333 87.1651Z" fill="#FFE76B"/>
<path d="M354.003 89.4032C354.062 88.4253 354.695 88.084 355.672 88.2546L358.265 88.655C359.472 88.8256 359.993 89.6329 359.822 90.7224C359.129 95.8285 355.441 101.046 346.329 101.046C334.05 101.046 331.055 92.501 331.055 79.2566C331.055 67.2132 333.997 58.6155 345.927 58.6155C357.856 58.6155 359.822 67.3313 359.993 78.8562V79.7751C360.053 80.3461 359.703 80.6348 359.01 80.6348H337.798C337.91 89.0619 339.183 95.0869 346.501 95.0869C351.918 95.0869 353.706 92.0481 353.996 89.4097L354.003 89.4032ZM353.659 75.5812C353.488 69.1034 351.759 64.227 345.874 64.227C339.645 64.227 338.207 69.0443 337.864 75.5812H353.659Z" fill="#FFE76B"/>
<path d="M20.1171 110.733C21.5554 111.022 21.9051 111.652 21.9051 112.801V115.38C21.9051 116.41 21.1529 116.929 20.2886 116.758C19.5364 116.588 18.6193 116.47 17.6956 116.47C12.1071 116.47 10.2003 119.279 10.2003 124.267V128.736H18.2102C19.4177 128.736 19.9983 129.484 19.9983 130.574V132.753C19.9983 133.842 19.4243 134.59 18.2102 134.59H10.2003V150.644C10.2003 151.733 9.56686 152.482 8.35283 152.482H5.29795C4.09052 152.482 3.50989 151.733 3.50989 150.644V134.59H2.70494C1.60967 134.59 1.03564 133.79 1.03564 132.753V130.574C1.03564 129.484 1.60967 128.736 2.70494 128.736H3.50989V124.089C3.50989 115.944 6.68353 110.497 16.9434 110.497C18.1509 110.497 19.2527 110.556 20.1171 110.727V110.733Z" fill="#DE4F76"/>
<path d="M33.6038 130.515V150.644C33.6038 151.733 33.0297 152.482 31.8157 152.482H28.7014C27.4346 152.482 26.854 151.733 26.854 150.644V112.794C26.854 111.705 27.4874 110.956 28.7014 110.956H31.0635C32.3303 110.956 32.911 111.705 32.911 112.794V118.642H33.2013C33.6038 116.981 35.9658 110.497 44.3255 110.497C45.0777 110.497 45.4802 110.609 45.7111 110.668C46.3445 110.779 46.6942 111.127 46.6942 111.928V115.656C46.6942 116.686 46.1729 116.975 45.2558 116.975C45.1437 116.975 44.7346 116.863 43.6987 116.863C35.4578 116.863 33.6104 124.601 33.6104 130.508L33.6038 130.515Z" fill="#DE4F76"/>
<path d="M71.1925 141.298C71.2518 140.32 71.8853 139.979 72.8618 140.149L75.4548 140.55C76.6622 140.72 77.1834 141.528 77.0119 142.617C76.3191 147.723 72.6308 152.941 63.519 152.941C51.2401 152.941 48.2446 144.396 48.2446 131.151C48.2446 119.108 51.1873 110.51 63.1165 110.51C75.0457 110.51 77.0119 119.226 77.1834 130.751V131.67C77.2428 132.241 76.8931 132.53 76.2003 132.53H54.9878C55.0999 140.957 56.3734 146.982 63.6905 146.982C69.1075 146.982 70.8956 143.943 71.1859 141.305L71.1925 141.298ZM70.8494 127.476C70.6778 120.998 68.9491 116.122 63.0637 116.122C56.8352 116.122 55.3969 120.939 55.0538 127.476H70.8494Z" fill="#DE4F76"/>
<path d="M102.381 141.18C102.381 131.893 81.6831 136.474 81.6831 121.74C81.6831 116.463 85.543 110.504 94.9451 110.504C104.347 110.504 108.438 115.203 108.893 120.998C109.005 122.199 108.491 122.888 107.336 123.066L104.624 123.525C103.417 123.696 102.665 123.295 102.605 122.206C102.262 118.878 99.8936 116.299 95.1101 116.299C90.3265 116.299 88.3669 118.878 88.3669 121.864C88.3669 130.239 109.177 126.682 109.177 141.823C109.177 147.73 105.601 152.888 94.9385 153.007C85.7145 153.118 81.3928 147.218 81.1619 143.031C81.1025 141.711 81.505 141.14 82.719 140.963L85.543 140.504C86.6976 140.333 87.331 140.793 87.4432 141.764C87.7863 144.514 89.9768 147.211 95.1101 147.211C100.989 147.211 102.374 144.114 102.374 141.193L102.381 141.18Z" fill="#DE4F76"/>
<path d="M121.232 117.5H121.463C121.865 116.01 124.115 111.193 131.32 111.193C140.715 111.193 144.12 117.841 144.12 125.586V150.644C144.12 151.733 143.546 152.482 142.332 152.482H139.337C138.07 152.482 137.489 151.733 137.489 150.644V126.905C137.489 121.858 135.873 117.159 129.763 117.159C123.653 117.159 121.575 123.354 121.575 126.964V150.644C121.575 151.733 120.941 152.482 119.727 152.482H116.672C115.465 152.482 114.825 151.733 114.825 150.644V105.627C114.825 104.538 115.458 103.79 116.672 103.79H119.384C120.592 103.79 121.232 104.538 121.232 105.627V117.5Z" fill="#DE4F76"/>
<path d="M173.745 126.216C173.745 121.169 172.129 116.47 166.019 116.47C159.909 116.47 157.831 122.376 157.831 126.045V150.644C157.831 151.733 157.197 152.482 155.983 152.482H152.928C151.662 152.482 151.081 151.733 151.081 150.644V112.794C151.081 111.705 151.655 110.956 152.928 110.956H155.291C156.617 110.956 157.138 111.705 157.138 112.794V117.323H157.428C157.771 115.833 160.252 110.497 167.86 110.497C177.024 110.497 180.429 117.152 180.429 124.89V150.637C180.429 151.727 179.855 152.475 178.582 152.475H175.586C174.319 152.475 173.739 151.727 173.739 150.637V126.209L173.745 126.216Z" fill="#DE4F76"/>
<path d="M209.077 141.298C209.137 140.32 209.77 139.979 210.747 140.149L213.34 140.55C214.547 140.72 215.068 141.528 214.897 142.617C214.204 147.723 210.516 152.941 201.404 152.941C189.125 152.941 186.13 144.396 186.13 131.151C186.13 119.108 189.072 110.51 201.002 110.51C212.931 110.51 214.897 119.226 215.068 130.751V131.67C215.128 132.241 214.778 132.53 214.085 132.53H192.873C192.985 140.957 194.258 146.982 201.576 146.982C206.993 146.982 208.781 143.943 209.071 141.305L209.077 141.298ZM208.734 127.476C208.563 120.998 206.834 116.122 200.949 116.122C194.72 116.122 193.282 120.939 192.939 127.476H208.734Z" fill="#DE4F76"/>
<path d="M240.266 141.18C240.266 131.893 219.568 136.474 219.568 121.74C219.568 116.463 223.428 110.504 232.83 110.504C242.232 110.504 246.323 115.203 246.778 120.998C246.89 122.199 246.376 122.888 245.221 123.066L242.509 123.525C241.302 123.696 240.55 123.295 240.49 122.206C240.147 118.878 237.779 116.299 232.995 116.299C228.212 116.299 226.252 118.878 226.252 121.864C226.252 130.239 247.062 126.682 247.062 141.823C247.062 147.73 243.486 152.888 232.824 153.007C223.6 153.118 219.278 147.218 219.047 143.031C218.988 141.711 219.39 141.14 220.604 140.963L223.428 140.504C224.583 140.333 225.216 140.793 225.328 141.764C225.671 144.514 227.862 147.211 232.995 147.211C238.874 147.211 240.259 144.114 240.259 141.193L240.266 141.18Z" fill="#DE4F76"/>
<path d="M272.141 141.18C272.141 131.893 251.443 136.474 251.443 121.74C251.443 116.463 255.303 110.504 264.705 110.504C274.107 110.504 278.198 115.203 278.653 120.998C278.765 122.199 278.251 122.888 277.096 123.066L274.384 123.525C273.177 123.696 272.425 123.295 272.365 122.206C272.022 118.878 269.654 116.299 264.87 116.299C260.087 116.299 258.127 118.878 258.127 121.864C258.127 130.239 278.937 126.682 278.937 141.823C278.937 147.73 275.361 152.888 264.699 153.007C255.475 153.118 251.153 147.218 250.922 143.031C250.863 141.711 251.265 141.14 252.479 140.963L255.303 140.504C256.458 140.333 257.091 140.793 257.203 141.764C257.546 144.514 259.737 147.211 264.87 147.211C270.749 147.211 272.134 144.114 272.134 141.193L272.141 141.18Z" fill="#DE4F76"/>
</g>
<defs>
<clipPath id="clip0_249_3787">
<rect width="360" height="153" fill="white"/>
</clipPath>
</defs>
</svg>
