<svg width="546" height="234" viewBox="0 0 546 234" fill="none" xmlns="http://www.w3.org/2000/svg">
<g clip-path="url(#clip0_181_1626)">
<path d="M40.98 10.9199C42.81 10.9199 43.69 12.0599 43.69 13.7199V17.0399C43.69 18.6099 42.82 19.7499 40.98 19.7499H26.91V71.3899C26.91 73.0499 25.95 74.1899 24.11 74.1899H19.48C17.65 74.1899 16.77 73.0499 16.77 71.3899V19.7499H2.8C0.88 19.7499 0 18.6099 0 17.0399V13.7199C0 12.0599 0.87 10.9199 2.8 10.9199H40.98Z" fill="white"/>
<path d="M81.25 57.14C81.34 55.65 82.3 55.13 83.78 55.39L87.71 56C89.54 56.26 90.33 57.49 90.07 59.15C89.02 66.93 83.43 74.88 69.62 74.88C51.01 74.88 46.47 61.86 46.47 41.68C46.47 23.33 50.93 10.23 69.01 10.23C87.09 10.23 90.07 23.51 90.33 41.07V42.47C90.42 43.34 89.89 43.78 88.84 43.78H56.69C56.86 56.62 58.79 65.8 69.88 65.8C78.09 65.8 80.8 61.17 81.24 57.15L81.25 57.14ZM80.73 36.08C80.47 26.21 77.85 18.78 68.94 18.78C59.5 18.78 57.32 26.12 56.8 36.08H80.74H80.73Z" fill="white"/>
<path d="M131.67 53.73C131.76 52.16 132.98 51.46 134.73 51.72L138.84 52.42C140.5 52.68 141.46 53.47 141.37 55.65C140.76 66.05 136.04 74.87 119.96 74.87C101.44 74.87 97.1599 63.25 97.1599 42.98C97.1599 24.72 101.27 10.22 119.96 10.22C136.39 10.22 141.02 19.66 141.45 29.44C141.45 31.54 140.58 32.41 138.92 32.67L134.73 33.46C132.72 33.9 131.76 33.29 131.76 31.97C131.41 25.24 128.35 19.3 119.97 19.3C108.52 19.3 107.48 30.75 107.48 42.98C107.48 57.05 108.53 65.78 119.97 65.78C128.36 65.78 131.42 60.54 131.68 53.72L131.67 53.73Z" fill="white"/>
<path d="M159.62 20.88H159.97C160.58 18.61 163.99 11.27 174.91 11.27C189.15 11.27 194.31 21.41 194.31 33.2V71.38C194.31 73.04 193.44 74.18 191.6 74.18H187.06C185.14 74.18 184.26 73.04 184.26 71.38V35.21C184.26 27.52 181.81 20.36 172.55 20.36C163.29 20.36 160.14 29.8 160.14 35.3V71.38C160.14 73.04 159.18 74.18 157.34 74.18H152.71C150.88 74.18 149.91 73.04 149.91 71.38V2.8C149.91 1.14 150.87 0 152.71 0H156.82C158.65 0 159.62 1.14 159.62 2.8V20.89V20.88Z" fill="white"/>
<path d="M239.22 34.16C239.22 26.47 236.77 19.31 227.51 19.31C218.25 19.31 215.1 28.31 215.1 33.9V71.38C215.1 73.04 214.14 74.18 212.3 74.18H207.67C205.75 74.18 204.87 73.04 204.87 71.38V13.72C204.87 12.06 205.74 10.92 207.67 10.92H211.25C213.26 10.92 214.05 12.06 214.05 13.72V20.62H214.49C215.01 18.35 218.77 10.22 230.3 10.22C244.19 10.22 249.35 20.36 249.35 32.15V71.38C249.35 73.04 248.48 74.18 246.55 74.18H242.01C240.09 74.18 239.21 73.04 239.21 71.38V34.16H239.22Z" fill="white"/>
<path d="M281.68 74.88C265.25 74.88 257.83 65.27 257.83 42.81C257.83 20.35 265.26 10.22 281.68 10.22C298.1 10.22 305.44 20.36 305.44 42.81C305.44 65.26 298.1 74.88 281.68 74.88ZM281.68 65.79C291.12 65.79 295.14 58.98 295.14 42.81C295.14 26.64 291.12 19.31 281.68 19.31C272.24 19.31 268.14 26.47 268.14 42.81C268.14 59.15 272.16 65.79 281.68 65.79Z" fill="white"/>
<path d="M314.18 2.8C314.18 1.23 314.97 0 316.89 0H321.52C323.44 0 324.32 1.14 324.32 2.8V62.47C324.32 65 325.28 65.88 327.47 65.88C328.08 65.88 328.52 65.79 328.78 65.71C329.48 65.62 329.92 65.97 329.92 66.58V71.39C329.92 73.14 329.05 74.19 327.21 74.62C326.34 74.79 325.2 74.88 323.71 74.88C317.77 74.88 314.19 71.82 314.19 65.01V2.8H314.18Z" fill="white"/>
<path d="M358.82 74.88C342.39 74.88 334.97 65.27 334.97 42.81C334.97 20.35 342.4 10.22 358.82 10.22C375.24 10.22 382.58 20.36 382.58 42.81C382.58 65.26 375.24 74.88 358.82 74.88ZM358.82 65.79C368.26 65.79 372.28 58.98 372.28 42.81C372.28 26.64 368.26 19.31 358.82 19.31C349.38 19.31 345.28 26.47 345.28 42.81C345.28 59.15 349.3 65.79 358.82 65.79Z" fill="white"/>
<path d="M432.3 54.17C432.3 65.62 427.32 74.88 410.72 74.88C392.81 74.88 390.1 64.92 389.66 59.07C389.57 58.02 389.83 56.71 391.58 56.36L396.56 55.4C398.48 54.96 398.83 56.19 398.92 57.15C399.27 61.17 401.63 66.59 410.71 66.59C419.79 66.59 422.42 61.44 422.42 54.01V44.05H421.9C421.9 44.05 419.02 50.25 408.62 50.25C397.26 50.25 388.87 41.69 388.87 30.33C388.87 18.97 396.56 10.23 408.62 10.23C420.68 10.23 423.04 17.31 423.04 17.31H423.39V13.38C423.39 11.81 424.26 10.93 426.1 10.93H429.51C431.43 10.93 432.31 11.8 432.31 13.46V54.18L432.3 54.17ZM410.72 18.61C403.64 18.61 398.93 23.42 398.93 30.23C398.93 37.04 403.65 41.94 410.72 41.94C419.02 41.94 422.69 35.82 422.69 30.23C422.69 24.64 419.02 18.61 410.72 18.61Z" fill="white"/>
<path d="M442.69 59.3299C442.6 57.8399 443.39 56.7999 445.14 56.4499L449.25 55.6599C451.17 55.3099 451.96 56.3599 451.96 57.4099C452.31 61.4299 454.49 66.4999 463.32 66.6699C471.88 66.8399 475.03 61.5999 475.03 54.1799V40.8099H474.77C474.16 42.9099 471.1 49.8999 460 49.8999C445.93 49.8999 440.69 39.7699 440.69 27.9699V13.7299C440.69 12.0699 441.65 10.9299 443.49 10.9299H448.03C449.86 10.9299 450.74 12.0699 450.74 13.7299V25.9599C450.74 33.6499 453.1 40.8099 462.36 40.8099C471.62 40.8099 474.59 31.3699 474.77 25.9599V13.7299C474.77 12.0699 475.64 10.9299 477.57 10.9299H482.2C484.03 10.9299 485 12.0699 485 13.7299V54.3599C485 65.8099 479.67 75.1499 463.33 74.9799C445.59 74.8099 442.88 65.0199 442.71 59.3399L442.69 59.3299Z" fill="white"/>
<path d="M36.8701 132.81C36.9601 131.24 38.1801 130.54 39.9301 130.8L44.0401 131.5C45.7001 131.76 46.6601 132.55 46.5701 134.73C45.9601 145.13 41.2401 153.95 25.1601 153.95C6.64011 153.95 2.36011 142.33 2.36011 122.06C2.36011 103.8 6.47011 89.3 25.1601 89.3C41.5901 89.3 46.2201 98.74 46.6501 108.52C46.6501 110.62 45.7801 111.49 44.1201 111.75L39.9301 112.54C37.9201 112.98 36.9601 112.37 36.9601 111.05C36.6101 104.32 33.5501 98.38 25.1701 98.38C13.7201 98.38 12.6801 109.83 12.6801 122.06C12.6801 136.13 13.7301 144.86 25.1701 144.86C33.5601 144.86 36.6201 139.62 36.8801 132.8L36.8701 132.81Z" fill="#FFE76B"/>
<path d="M76.8 153.95C60.37 153.95 52.95 144.34 52.95 121.88C52.95 99.42 60.38 89.29 76.8 89.29C93.22 89.29 100.56 99.43 100.56 121.88C100.56 144.33 93.22 153.95 76.8 153.95ZM76.8 144.86C86.24 144.86 90.26 138.05 90.26 121.88C90.26 105.71 86.24 98.38 76.8 98.38C67.36 98.38 63.2599 105.54 63.2599 121.88C63.2599 138.22 67.28 144.86 76.8 144.86Z" fill="#FFE76B"/>
<path d="M143.72 113.24C143.72 105.55 141.27 98.39 132.01 98.39C122.75 98.39 119.6 107.39 119.6 112.98V150.46C119.6 152.12 118.64 153.26 116.8 153.26H112.17C110.25 153.26 109.37 152.12 109.37 150.46V92.79C109.37 91.13 110.24 89.99 112.17 89.99H115.75C117.76 89.99 118.55 91.13 118.55 92.79V99.69H118.99C119.51 97.42 123.27 89.29 134.8 89.29C148.69 89.29 153.85 99.43 153.85 111.22V150.45C153.85 152.11 152.98 153.25 151.05 153.25H146.51C144.59 153.25 143.71 152.11 143.71 150.45V113.23L143.72 113.24Z" fill="#FFE76B"/>
<path d="M188.89 150.63C188.45 152.12 187.4 153.25 185.4 153.25H179.98C177.97 153.25 176.92 152.11 176.48 150.63L159.27 92.61C158.83 91.3 159.44 89.99 161.19 89.99H167.13C169.14 89.99 170.19 91.13 170.62 92.61L183.03 138.83L195.52 92.61C195.96 91.12 197.01 89.99 199.02 89.99H204.09C205.92 89.99 206.54 91.3 206.1 92.61L188.89 150.63Z" fill="#FFE76B"/>
<path d="M244.46 136.22C244.55 134.73 245.51 134.21 246.99 134.47L250.92 135.08C252.75 135.34 253.54 136.57 253.28 138.23C252.23 146.01 246.64 153.96 232.83 153.96C214.22 153.96 209.68 140.94 209.68 120.76C209.68 102.41 214.14 89.3101 232.22 89.3101C250.3 89.3101 253.28 102.59 253.54 120.15V121.55C253.63 122.42 253.1 122.86 252.05 122.86H219.9C220.07 135.7 222 144.88 233.09 144.88C241.3 144.88 244.01 140.25 244.45 136.23L244.46 136.22ZM243.94 115.16C243.68 105.29 241.06 97.8601 232.14 97.8601C222.7 97.8601 220.52 105.2 220 115.16H243.94Z" fill="#FFE76B"/>
<path d="M296.61 113.24C296.61 105.55 294.16 98.39 284.9 98.39C275.64 98.39 272.49 107.39 272.49 112.98V150.46C272.49 152.12 271.53 153.26 269.69 153.26H265.06C263.14 153.26 262.26 152.12 262.26 150.46V92.79C262.26 91.13 263.13 89.99 265.06 89.99H268.64C270.65 89.99 271.44 91.13 271.44 92.79V99.69H271.88C272.4 97.42 276.16 89.29 287.69 89.29C301.58 89.29 306.74 99.43 306.74 111.22V150.45C306.74 152.11 305.87 153.25 303.94 153.25H299.4C297.48 153.25 296.6 152.11 296.6 150.45V113.23L296.61 113.24Z" fill="#FFE76B"/>
<path d="M335.67 144.43C337.5 144.43 338.38 145.57 338.38 147.14V150.46C338.38 152.12 337.51 153.26 335.67 153.26H317.85C316.02 153.26 315.14 152.12 315.14 150.46V147.14C315.14 145.57 316.01 144.43 317.85 144.43H321.69V112.19H317.85C316.1 112.19 315.14 111.05 315.14 109.39V106.07C315.14 104.41 316.01 103.27 317.85 103.27H335.67C337.5 103.27 338.38 104.41 338.38 106.07V109.39C338.38 111.05 337.51 112.19 335.67 112.19H331.83V144.43H335.67ZM318.28 90.87C318.28 86.59 321.95 83.01 326.58 83.01C330.95 83.01 334.7 86.59 334.7 90.87C334.7 95.15 330.94 98.82 326.58 98.82C321.95 98.82 318.28 95.24 318.28 90.87Z" fill="#FFE76B"/>
<path d="M379.96 136.22C380.05 134.73 381.01 134.21 382.49 134.47L386.42 135.08C388.25 135.34 389.04 136.57 388.78 138.23C387.73 146.01 382.14 153.96 368.33 153.96C349.72 153.96 345.18 140.94 345.18 120.76C345.18 102.41 349.64 89.3101 367.72 89.3101C385.8 89.3101 388.78 102.59 389.04 120.15V121.55C389.13 122.42 388.6 122.86 387.55 122.86H355.4C355.57 135.7 357.5 144.88 368.59 144.88C376.8 144.88 379.51 140.25 379.95 136.23L379.96 136.22ZM379.44 115.16C379.18 105.29 376.56 97.8601 367.65 97.8601C358.21 97.8601 356.03 105.2 355.51 115.16H379.45H379.44Z" fill="#FFE76B"/>
<path d="M432.12 113.24C432.12 105.55 429.67 98.39 420.41 98.39C411.15 98.39 408 107.39 408 112.98V150.46C408 152.12 407.04 153.26 405.2 153.26H400.57C398.65 153.26 397.77 152.12 397.77 150.46V92.79C397.77 91.13 398.64 89.99 400.57 89.99H404.15C406.16 89.99 406.95 91.13 406.95 92.79V99.69H407.39C407.91 97.42 411.67 89.29 423.2 89.29C437.09 89.29 442.25 99.43 442.25 111.22V150.45C442.25 152.11 441.38 153.25 439.45 153.25H434.91C432.99 153.25 432.11 152.11 432.11 150.45V113.23L432.12 113.24Z" fill="#FFE76B"/>
<path d="M485.5 132.81C485.59 131.24 486.81 130.54 488.56 130.8L492.67 131.5C494.33 131.76 495.29 132.55 495.2 134.73C494.59 145.13 489.87 153.95 473.79 153.95C455.27 153.95 450.99 142.33 450.99 122.06C450.99 103.8 455.1 89.3 473.79 89.3C490.22 89.3 494.85 98.74 495.28 108.52C495.28 110.62 494.41 111.49 492.75 111.75L488.56 112.54C486.55 112.98 485.59 112.37 485.59 111.05C485.24 104.32 482.18 98.38 473.8 98.38C462.35 98.38 461.31 109.83 461.31 122.06C461.31 136.13 462.36 144.86 473.8 144.86C482.19 144.86 485.25 139.62 485.51 132.8L485.5 132.81Z" fill="#FFE76B"/>
<path d="M536.53 136.22C536.62 134.73 537.58 134.21 539.06 134.47L542.99 135.08C544.82 135.34 545.61 136.57 545.35 138.23C544.3 146.01 538.71 153.96 524.9 153.96C506.29 153.96 501.75 140.94 501.75 120.76C501.75 102.41 506.21 89.3101 524.29 89.3101C542.37 89.3101 545.35 102.59 545.61 120.15V121.55C545.7 122.42 545.17 122.86 544.12 122.86H511.97C512.14 135.7 514.07 144.88 525.16 144.88C533.37 144.88 536.08 140.25 536.52 136.23L536.53 136.22ZM536.01 115.16C535.75 105.29 533.13 97.8601 524.21 97.8601C514.77 97.8601 512.59 105.2 512.07 115.16H536.01Z" fill="#FFE76B"/>
<path d="M30.4901 168.72C32.6701 169.16 33.2001 170.12 33.2001 171.87V175.8C33.2001 177.37 32.0601 178.16 30.7501 177.9C29.6101 177.64 28.2201 177.46 26.8201 177.46C18.3501 177.46 15.4601 181.74 15.4601 189.34V196.15H27.6001C29.4301 196.15 30.3101 197.29 30.3101 198.95V202.27C30.3101 203.93 29.4401 205.07 27.6001 205.07H15.4601V229.53C15.4601 231.19 14.5001 232.33 12.6601 232.33H8.03007C6.20007 232.33 5.32007 231.19 5.32007 229.53V205.07H4.10007C2.44007 205.07 1.57007 203.85 1.57007 202.27V198.95C1.57007 197.29 2.44007 196.15 4.10007 196.15H5.32007V189.07C5.32007 176.66 10.1301 168.36 25.6801 168.36C27.5101 168.36 29.1801 168.45 30.4901 168.71V168.72Z" fill="#DE4F76"/>
<path d="M50.93 198.86V229.53C50.93 231.19 50.06 232.33 48.22 232.33H43.5C41.58 232.33 40.7 231.19 40.7 229.53V171.86C40.7 170.2 41.66 169.06 43.5 169.06H47.08C49 169.06 49.88 170.2 49.88 171.86V180.77H50.32C50.9299 178.24 54.51 168.36 67.18 168.36C68.32 168.36 68.9299 168.53 69.2799 168.62C70.2399 168.79 70.7699 169.32 70.7699 170.54V176.22C70.7699 177.79 69.9799 178.23 68.5899 178.23C68.4199 178.23 67.8 178.06 66.23 178.06C53.74 178.06 50.9399 189.85 50.9399 198.85L50.93 198.86Z" fill="#DE4F76"/>
<path d="M107.9 215.29C107.99 213.8 108.95 213.28 110.43 213.54L114.36 214.15C116.19 214.41 116.98 215.64 116.72 217.3C115.67 225.08 110.08 233.03 96.2701 233.03C77.6601 233.03 73.1201 220.01 73.1201 199.83C73.1201 181.48 77.5801 168.38 95.6601 168.38C113.74 168.38 116.72 181.66 116.98 199.22V200.62C117.07 201.49 116.54 201.93 115.49 201.93H83.3401C83.5101 214.77 85.4401 223.95 96.5301 223.95C104.74 223.95 107.45 219.32 107.89 215.3L107.9 215.29ZM107.38 194.23C107.12 184.36 104.5 176.93 95.5801 176.93C86.1401 176.93 83.9601 184.27 83.4401 194.23H107.38Z" fill="#DE4F76"/>
<path d="M155.17 215.11C155.17 200.96 123.8 207.94 123.8 185.49C123.8 177.45 129.65 168.37 143.9 168.37C158.15 168.37 164.35 175.53 165.04 184.36C165.21 186.19 164.43 187.24 162.68 187.51L158.57 188.21C156.74 188.47 155.6 187.86 155.51 186.2C154.99 181.13 151.4 177.2 144.15 177.2C136.9 177.2 133.93 181.13 133.93 185.68C133.93 198.44 165.47 193.02 165.47 216.09C165.47 225.09 160.05 232.95 143.89 233.13C129.91 233.3 123.36 224.31 123.01 217.93C122.92 215.92 123.53 215.05 125.37 214.78L129.65 214.08C131.4 213.82 132.36 214.52 132.53 216C133.05 220.19 136.37 224.3 144.15 224.3C153.06 224.3 155.16 219.58 155.16 215.13L155.17 215.11Z" fill="#DE4F76"/>
<path d="M183.74 179.03H184.09C184.7 176.76 188.11 169.42 199.03 169.42C213.27 169.42 218.43 179.55 218.43 191.35V229.53C218.43 231.19 217.56 232.33 215.72 232.33H211.18C209.26 232.33 208.38 231.19 208.38 229.53V193.36C208.38 185.67 205.93 178.51 196.67 178.51C187.41 178.51 184.26 187.95 184.26 193.45V229.53C184.26 231.19 183.3 232.33 181.46 232.33H176.83C175 232.33 174.03 231.19 174.03 229.53V160.94C174.03 159.28 174.99 158.14 176.83 158.14H180.94C182.77 158.14 183.74 159.28 183.74 160.94V179.03Z" fill="#DE4F76"/>
<path d="M263.33 192.31C263.33 184.62 260.88 177.46 251.62 177.46C242.36 177.46 239.21 186.46 239.21 192.05V229.53C239.21 231.19 238.25 232.33 236.41 232.33H231.78C229.86 232.33 228.98 231.19 228.98 229.53V171.86C228.98 170.2 229.85 169.06 231.78 169.06H235.36C237.37 169.06 238.16 170.2 238.16 171.86V178.76H238.6C239.12 176.49 242.88 168.36 254.41 168.36C268.3 168.36 273.46 178.5 273.46 190.29V229.52C273.46 231.18 272.59 232.32 270.66 232.32H266.12C264.2 232.32 263.32 231.18 263.32 229.52V192.3L263.33 192.31Z" fill="#DE4F76"/>
<path d="M316.88 215.29C316.97 213.8 317.93 213.28 319.41 213.54L323.34 214.15C325.17 214.41 325.96 215.64 325.7 217.3C324.65 225.08 319.06 233.03 305.25 233.03C286.64 233.03 282.1 220.01 282.1 199.83C282.1 181.48 286.56 168.38 304.64 168.38C322.72 168.38 325.7 181.66 325.96 199.22V200.62C326.05 201.49 325.52 201.93 324.47 201.93H292.32C292.49 214.77 294.42 223.95 305.51 223.95C313.72 223.95 316.43 219.32 316.87 215.3L316.88 215.29ZM316.36 194.23C316.1 184.36 313.48 176.93 304.56 176.93C295.12 176.93 292.94 184.27 292.42 194.23H316.36Z" fill="#DE4F76"/>
<path d="M364.15 215.11C364.15 200.96 332.78 207.94 332.78 185.49C332.78 177.45 338.63 168.37 352.88 168.37C367.13 168.37 373.33 175.53 374.02 184.36C374.19 186.19 373.41 187.24 371.66 187.51L367.55 188.21C365.72 188.47 364.58 187.86 364.49 186.2C363.97 181.13 360.38 177.2 353.13 177.2C345.88 177.2 342.91 181.13 342.91 185.68C342.91 198.44 374.45 193.02 374.45 216.09C374.45 225.09 369.03 232.95 352.87 233.13C338.89 233.3 332.34 224.31 331.99 217.93C331.9 215.92 332.51 215.05 334.35 214.78L338.63 214.08C340.38 213.82 341.34 214.52 341.51 216C342.03 220.19 345.35 224.3 353.13 224.3C362.04 224.3 364.14 219.58 364.14 215.13L364.15 215.11Z" fill="#DE4F76"/>
<path d="M412.46 215.11C412.46 200.96 381.09 207.94 381.09 185.49C381.09 177.45 386.94 168.37 401.19 168.37C415.44 168.37 421.64 175.53 422.33 184.36C422.5 186.19 421.72 187.24 419.97 187.51L415.86 188.21C414.03 188.47 412.89 187.86 412.8 186.2C412.28 181.13 408.69 177.2 401.44 177.2C394.19 177.2 391.22 181.13 391.22 185.68C391.22 198.44 422.76 193.02 422.76 216.09C422.76 225.09 417.34 232.95 401.18 233.13C387.2 233.3 380.65 224.31 380.3 217.93C380.21 215.92 380.82 215.05 382.66 214.78L386.94 214.08C388.69 213.82 389.65 214.52 389.82 216C390.34 220.19 393.66 224.3 401.44 224.3C410.35 224.3 412.45 219.58 412.45 215.13L412.46 215.11Z" fill="#DE4F76"/>
</g>
<defs>
<clipPath id="clip0_181_1626">
<rect width="545.62" height="233.12" fill="white"/>
</clipPath>
</defs>
</svg>
