<svg width="142" height="160" viewBox="0 0 142 160" fill="none" xmlns="http://www.w3.org/2000/svg">
<g clip-path="url(#clip0_181_1920)">
<path d="M94.9222 4.01791e-05C79.4452 -0.359134 73.3838 13.936 71.5151 27.0099C69.5984 40.443 70.3411 54.5466 72.3297 67.9557C73.8869 78.4676 77.0015 88.9555 81.1223 98.9884C78.3192 100.042 75.4203 100.808 72.4015 101.191C65.837 102.005 59.0808 100.617 52.8038 98.7489C41.3757 95.3727 30.4508 89.2188 21.3946 81.5086C13.5843 74.8519 5.96557 65.9923 5.17496 55.3368C4.88746 51.3859 -0.335421 50.6915 -0.0239645 55.1213C0.95832 69.3206 10.0864 80.6705 20.604 89.5301C31.9123 99.0842 46.2632 106.244 60.8777 108.902C69.0953 110.386 77.0255 109.333 84.4285 106.507C86.9441 111.823 89.7233 116.971 92.6941 121.904C97.8211 130.404 104.002 138.45 111.621 144.867C114.113 146.974 116.916 149.009 119.887 150.662C112.723 149.776 105.512 148.411 98.3722 149.44C94.7545 149.967 96.0482 157.869 99.6899 157.534C113.059 156.289 126.547 162.538 139.748 158.851C142.599 158.061 142.383 153.894 141.161 151.859C138.191 146.902 135.867 141.658 133.686 136.319C131.65 131.362 129.997 125.28 126.475 121.161C124.223 118.503 122.354 122.407 122.738 124.466C123.768 130.045 126.691 135.576 128.895 140.796C129.494 142.185 130.093 143.598 130.692 144.987C119.431 144.172 109.297 132.99 103.044 124.825C98.0847 118.384 93.9639 111.248 90.442 103.825C105.871 95.7079 118.473 80.2874 125.732 65.4894C131.842 53.0141 134.477 37.833 128.895 24.6873C123.408 11.7809 109.297 0.359214 94.9222 4.01791e-05ZM119.839 61.5146C113.25 74.8758 102.541 86.6807 89.9149 94.5825C88.9806 95.1572 88.0462 95.7079 87.0879 96.2347C85.7462 92.9782 84.5244 89.6977 83.3983 86.3933C79.5411 75.1392 77.5525 63.7175 76.9296 51.8408C76.5463 44.5616 76.5703 37.1626 77.5765 29.9312C78.3911 24.0647 79.8525 17.7193 84.141 13.3613C95.1618 2.17903 114.496 14.0557 121.492 24.2563C129.278 35.6061 125.421 50.1407 119.839 61.5146Z" fill="#005A64"/>
<path d="M69.9579 116.324C69.9579 116.324 69.6225 116.348 69.2152 116.372C68.8319 116.372 68.3288 116.396 67.6579 116.372C66.9871 116.324 66.1486 116.301 65.1663 116.157C64.5673 116.061 63.9684 115.989 63.3455 115.893C62.7226 115.774 62.0757 115.654 61.4528 115.534C60.183 115.247 58.9611 114.984 57.883 114.72C56.8049 114.481 55.8705 114.193 55.2237 114.026C54.8882 113.954 54.6247 113.882 54.457 113.81C54.2893 113.762 54.1695 113.738 54.1695 113.738C53.5226 113.595 52.8758 113.499 52.2528 113.355L51.2945 113.14C50.9831 113.068 50.6477 113.02 50.3362 112.924C49.881 112.829 49.4497 112.709 48.9945 112.589C48.7789 112.541 48.5393 112.493 48.3237 112.421L47.6529 112.23L46.3112 111.871L44.9935 111.464C44.706 111.368 44.4185 111.32 44.155 111.224L43.3165 110.937L42.4779 110.673L41.6394 110.362L40.8009 110.051C40.5134 109.955 40.2498 109.835 39.9623 109.716L39.1238 109.38C38.8363 109.285 38.5488 109.165 38.2613 109.021C38.2134 109.021 37.9977 108.925 37.9259 108.902C37.1592 108.638 36.8717 108.447 36.7759 108.375C36.9196 108.494 37.255 108.997 37.5186 109.476C37.5905 109.62 37.6144 109.644 37.6863 109.74C37.878 110.003 38.0696 110.266 38.2852 110.482L38.9561 111.2C39.1717 111.44 39.4113 111.679 39.6509 111.871L40.3936 112.493C40.6331 112.709 40.8967 112.9 41.1602 113.116L41.9508 113.667C42.4779 114.026 43.029 114.385 43.604 114.696L44.9696 115.415C45.4248 115.63 45.9039 115.822 46.3591 116.037L47.0539 116.324C47.2935 116.42 47.5331 116.492 47.7727 116.588L49.2102 117.067C49.4977 117.163 49.8091 117.234 50.0966 117.306L50.9831 117.522C51.2706 117.594 51.582 117.665 51.8695 117.737L52.7799 117.905C52.7799 117.905 52.9716 117.929 53.331 117.977C53.6903 118.025 54.1695 118.072 54.7924 118.096C55.9903 118.192 57.5955 118.216 59.1528 118.144C59.9434 118.096 60.7101 118.049 61.4288 117.977C62.1476 117.881 62.8184 117.809 63.3694 117.737C64.4715 117.546 65.1663 117.426 65.0225 117.426C67.5382 116.923 69.5027 116.324 69.934 116.301L69.9579 116.324Z" fill="#005A64"/>
<path d="M120.39 33.2356C120.102 32.0623 119.719 30.7693 119.264 29.5002C119.048 28.8537 118.761 28.2312 118.497 27.6325C118.209 27.0339 117.946 26.4353 117.635 25.9324C117.036 24.8549 116.413 23.969 115.957 23.3464C115.454 22.7478 115.167 22.3886 115.167 22.3886C114.927 22.1731 114.688 21.9576 114.448 21.7421C114.208 21.5266 113.969 21.2871 113.705 21.1195L112.915 20.5209C112.651 20.3054 112.364 20.1617 112.1 19.9702C111.861 19.8265 111.597 19.6828 111.357 19.5152C111.238 19.4434 111.094 19.3715 110.974 19.2997L110.16 18.9166C109.632 18.6532 109.057 18.4856 108.482 18.294L107.788 18.0546C107.5 17.9588 107.237 17.8869 106.949 17.8151C106.398 17.6714 105.847 17.5278 105.296 17.432C103.092 17.0249 100.84 16.9291 98.5878 17.2404C97.2701 17.408 95.9524 17.7672 94.7065 18.318C94.3951 18.4616 94.0836 18.6292 93.7961 18.7969C93.5086 18.9645 93.2211 19.18 92.9576 19.3955C92.6941 19.611 92.4305 19.8504 92.2149 20.1138L91.9034 20.5209L91.6399 20.9519C91.6399 20.9519 91.4962 21.2632 91.4962 21.3111C91.2805 21.9097 91.2087 22.2449 91.1368 22.4365C91.1368 22.4844 91.1128 22.5083 91.0889 22.5323C91.1368 22.4604 91.2566 22.2928 91.4003 22.1013C91.568 21.9336 91.7597 21.7421 91.9753 21.6224C92.0951 21.5505 92.1191 21.5266 92.2149 21.4787C92.4545 21.3111 92.6941 21.1674 92.9576 21.0477C93.2211 20.928 93.4847 20.8322 93.7482 20.7364C94.0118 20.6406 94.2753 20.5927 94.5628 20.5209C94.8263 20.4491 95.1138 20.4251 95.3774 20.3772C96.4795 20.2336 97.6055 20.2814 98.7315 20.3772C100.6 20.5448 102.493 20.928 104.29 21.4308C104.745 21.5505 105.176 21.6942 105.608 21.8379L106.254 22.0773L107.021 22.3646C107.428 22.5323 107.836 22.6759 108.219 22.8435C108.602 23.0591 109.01 23.2027 109.393 23.4422L110.04 23.8253C110.255 23.945 110.471 24.1126 110.663 24.2324L111.286 24.6634L111.885 25.1423C111.885 25.1423 112.028 25.238 112.268 25.4057C112.507 25.5972 112.843 25.8606 113.25 26.1958C114.041 26.8902 115.095 27.848 116.029 28.9735C116.964 30.0749 117.85 31.2482 118.425 32.1581C119.024 33.0441 119.336 33.6427 119.312 33.523C120.605 35.6062 121.372 37.5218 121.492 37.9289C121.468 37.8091 121.396 37.5936 121.324 37.2344C121.18 36.4922 120.917 35.2231 120.438 33.2356H120.39Z" fill="#005A64"/>
</g>
<defs>
<clipPath id="clip0_181_1920">
<rect width="142" height="160" fill="white"/>
</clipPath>
</defs>
</svg>
