<svg width="312" height="329" viewBox="0 0 312 329" fill="none" xmlns="http://www.w3.org/2000/svg">
<g clip-path="url(#clip0_181_1939)">
<path d="M140.436 23.9131C117.438 31.2399 115.769 55.4387 119.672 75.6576C123.686 96.4803 131.943 116.883 141.709 135.657C149.37 150.358 159.258 164.256 170.454 176.981C166.857 179.972 162.954 182.59 158.717 184.652C149.448 189.172 138.781 190.564 128.578 191.009C110.025 191.821 90.7887 188.323 73.5144 181.529C58.6217 175.682 42.8607 166.474 36.2799 151.153C33.8608 145.483 25.797 147.075 28.5072 153.464C37.1666 173.933 56.4125 186.022 76.4215 193.747C97.9703 202.084 122.755 205.384 145.644 201.836C158.521 199.845 169.664 194.259 179.158 186.339C185.577 192.907 192.28 199.11 199.171 204.837C211.055 214.748 224.257 223.507 238.744 229.095C243.502 230.934 248.639 232.519 253.855 233.443C242.85 235.764 231.525 237.411 221.499 242.579C216.446 245.187 222.344 256.199 227.545 253.837C246.63 245.197 269.69 247.576 287.283 235.419C291.067 232.789 288.653 226.754 285.808 224.382C278.9 218.581 272.814 212.009 266.875 205.265C261.339 199.005 255.809 190.844 248.522 186.555C243.841 183.775 243.052 190.473 244.689 193.346C249.057 201.058 256.17 207.713 262.076 214.31C263.66 216.069 265.244 217.828 266.869 219.562C249.845 224.092 229.239 212.761 215.823 203.88C205.236 196.877 195.508 188.467 186.561 179.309C205.181 159.501 215.923 130.315 219.104 104.819C221.806 83.3235 217.955 59.556 203.033 43.0337C188.403 26.8114 161.778 17.1314 140.436 23.9131ZM208.46 102.01C205.556 125.078 195.739 147.932 181.153 165.993C180.072 167.311 178.978 168.608 177.827 169.856C174.204 165.717 170.724 161.492 167.379 157.214C155.964 142.584 147.215 126.719 140.278 109.546C136.014 98.9785 132.272 88.0709 130.1 76.8934C128.324 67.8232 127.231 57.7021 131.357 49.1169C141.949 26.9988 176.457 34.6927 191.962 46.1758C209.231 58.9745 210.939 82.379 208.46 102.01Z" fill="#FFE76B"/>
</g>
<defs>
<clipPath id="clip0_181_1939">
<rect width="208.119" height="257.958" fill="white" transform="matrix(-0.857874 0.513861 0.513861 0.857874 178.54 0)"/>
</clipPath>
</defs>
</svg>
