<svg width="89" height="110" viewBox="0 0 89 110" fill="none" xmlns="http://www.w3.org/2000/svg">
<g clip-path="url(#clip0_249_3844)">
<path d="M89 43.6628C88.8947 52.8702 86.2447 61.0098 82.1395 68.7393C76.0407 80.2295 67.6942 90.0061 58.2023 98.8494C54.3046 102.485 50.1128 105.817 46.0231 109.253C44.8312 110.251 44.1997 110.239 43.0294 109.33C30.0825 99.2901 18.6154 87.8825 9.85412 74.0147C5.36511 66.9094 1.90084 59.3635 0.594382 50.9975C-1.47675 37.7172 1.8575 25.8415 10.5724 15.5569C17.6464 7.21541 26.7359 2.08077 37.6179 0.535482C53.382 -1.70136 66.849 3.05996 77.6134 14.6879C85.254 22.9498 88.8514 32.8794 89 43.6628ZM11.1018 43.8586C11.0739 62.0471 25.9619 76.9063 44.2554 76.9584C48.6574 76.9797 53.0203 76.1417 57.0938 74.4924C61.1673 72.843 64.8712 70.4149 67.993 67.3472C71.1147 64.2796 73.5929 60.6328 75.2852 56.6162C76.9776 52.5996 77.8508 48.2922 77.8549 43.9412C77.8858 25.8874 62.939 11.0128 44.695 10.9639C26.1601 10.9149 11.1451 25.6303 11.1018 43.8586Z" fill="white"/>
<path d="M51.8959 53.1242C51.8959 50.7191 51.868 48.3109 51.9145 45.9058C51.942 45.5924 51.88 45.2777 51.7355 44.9975C51.591 44.7173 51.3698 44.4828 51.0972 44.3207C45.3667 40.2387 44.6454 31.4229 49.5957 26.4321C53.0166 22.9804 58.0474 22.9253 61.4838 26.3036C66.5734 31.2974 65.8892 40.2417 60.0752 44.3574C59.8184 44.51 59.6097 44.7302 59.4725 44.9934C59.3352 45.2566 59.2748 45.5524 59.2981 45.8476C59.327 50.6967 59.327 55.5467 59.2981 60.3978C59.322 61.1884 59.0822 61.9648 58.6156 62.6073C58.149 63.2499 57.4816 63.7229 56.7162 63.9535C55.9774 64.21 55.1729 64.2137 54.4318 63.964C53.6907 63.7143 53.056 63.2256 52.6296 62.5765C52.1991 61.8637 51.9554 61.0559 51.9207 60.2264C51.8371 57.8611 51.8959 55.4927 51.8959 53.1242Z" fill="white"/>
<path d="M29.646 45.866C26.8225 45.5294 24.9124 44.186 24.2189 41.4321C24.135 41.0987 24.0924 40.7566 24.092 40.4131C24.092 35.5661 24.0455 30.7191 24.1291 25.8721C24.165 25.511 24.2766 25.1613 24.4568 24.8452C24.6369 24.5291 24.8817 24.2536 25.1755 24.0361C26.3736 23.2619 27.7637 24.2656 27.7822 25.8384C27.8101 28.4364 27.7822 31.0404 27.7822 33.6261V34.7154H31.4973V26.9461C31.4973 26.5269 31.4787 26.1047 31.4973 25.6854C31.5623 24.5838 32.2805 23.8495 33.2867 23.8066C33.5415 23.7942 33.7961 23.8349 34.034 23.926C34.2719 24.0171 34.4877 24.1567 34.6675 24.3356C34.8474 24.5144 34.9871 24.7287 35.0778 24.9644C35.1684 25.2001 35.2079 25.452 35.1937 25.7038C35.2278 28.4119 35.1937 31.123 35.1937 33.8342V34.7215H38.9088V32.959C38.9088 30.5936 38.9088 28.2252 38.9088 25.8599C38.9088 24.6053 39.6766 23.8127 40.7663 23.8219C41.856 23.8311 42.5898 24.5991 42.596 25.7742C42.6145 30.6977 42.6393 35.6212 42.596 40.5447C42.5614 41.7161 42.1394 42.844 41.3947 43.7558C40.65 44.6677 39.6234 45.3132 38.4723 45.5936C38.0327 45.7069 37.5838 45.7803 37.0636 45.8996V53.672C37.0636 55.9241 37.0884 58.1793 37.0636 60.4284C37.078 60.9173 36.9929 61.4041 36.8135 61.8599C36.6341 62.3157 36.364 62.7313 36.0192 63.0822C35.6744 63.433 35.2619 63.7119 34.8061 63.9023C34.3503 64.0927 33.8605 64.1908 33.3656 64.1908C32.8708 64.1908 32.381 64.0927 31.9252 63.9023C31.4694 63.7119 31.0569 63.433 30.7121 63.0822C30.3673 62.7313 30.0972 62.3157 29.9178 61.8599C29.7384 61.4041 29.6533 60.9173 29.6676 60.4284C29.6398 56.0006 29.6676 51.5698 29.6676 47.142L29.646 45.866Z" fill="white"/>
</g>
<defs>
<clipPath id="clip0_249_3844">
<rect width="89" height="110" fill="white"/>
</clipPath>
</defs>
</svg>
