<svg width="276" height="545" viewBox="0 0 276 545" fill="none" xmlns="http://www.w3.org/2000/svg">
<path d="M476.351 156.065C440.451 123.306 392.454 115.982 348.968 134.88C348.937 134.498 348.907 134.117 348.87 133.742C348.819 132.206 348.722 130.679 348.586 129.14C348.535 127.604 348.439 126.077 348.302 124.538C348.251 123.002 348.155 121.475 348.018 119.936C347.967 118.4 347.871 116.873 347.734 115.334C347.684 113.798 347.587 112.271 347.45 110.733C347.4 109.197 347.296 107.663 347.167 106.131C346.275 79.9414 333.303 53.5109 305.823 28.4354C248.046 -24.2609 171.804 -1.11569 84.2655 94.8173L9.78955 176.435C2.54185 184.378 -0.0132373 193.295 1.14374 201.673C1.09591 203.22 1.21937 204.76 1.42758 206.275C1.37975 207.822 1.50321 209.362 1.71142 210.877C1.66359 212.424 1.78705 213.963 1.99526 215.479C1.94742 217.026 2.07089 218.565 2.27909 220.081C2.23126 221.628 2.35412 223.154 2.56293 224.683C2.5151 226.23 2.63857 227.769 2.84677 229.285C2.79894 230.832 2.92241 232.371 3.13061 233.887C3.08278 235.434 3.20624 236.973 3.41445 238.488C3.1752 247.372 7.18149 255.977 14.403 262.567L313.274 535.284C326.167 547.049 344.507 548.041 358.009 533.244L447.728 434.921C500.65 376.924 527.749 326.08 524.245 280.098C524.201 278.555 524.078 277.029 523.961 275.496C523.917 273.953 523.794 272.427 523.677 270.894C523.633 269.352 523.51 267.826 523.394 266.293C523.343 264.757 523.226 263.224 523.11 261.691C523.065 260.148 522.942 258.622 522.826 257.089C522.782 255.546 522.659 254.02 522.542 252.487C522.491 250.951 522.375 249.418 522.258 247.885C522.208 246.349 522.091 244.816 521.974 243.283C520.991 212.213 506.29 183.359 476.364 156.051L476.351 156.065Z" fill="#005865"/>
</svg>
