<svg width="764" height="1367" viewBox="0 0 764 1367" fill="none" xmlns="http://www.w3.org/2000/svg">
<path d="M1195.47 390.746C1105.22 308.39 984.554 289.977 875.232 337.486C875.154 336.527 875.077 335.568 874.984 334.626C874.857 330.765 874.614 326.925 874.271 323.057C874.143 319.196 873.901 315.356 873.557 311.488C873.43 307.627 873.187 303.787 872.844 299.919C872.716 296.058 872.474 292.218 872.13 288.35C872.003 284.489 871.76 280.649 871.416 276.781C871.289 272.92 871.029 269.064 870.703 265.212C868.461 199.373 835.851 132.927 766.766 69.888C621.515 -62.5893 429.844 -4.40284 209.775 236.771L22.544 441.957C4.32348 461.925 -2.09995 484.342 0.808681 505.404C0.68843 509.294 0.99881 513.163 1.52224 516.973C1.40199 520.863 1.71238 524.732 2.23581 528.543C2.11556 532.432 2.42594 536.301 2.94937 540.112C2.82912 544.001 3.13951 547.87 3.66293 551.681C3.54268 555.57 3.85155 559.406 4.3765 563.25C4.25625 567.139 4.56663 571.009 5.09006 574.819C4.96981 578.708 5.2802 582.578 5.80362 586.388C5.68338 590.277 5.99377 594.147 6.51719 597.957C5.91572 620.291 15.9874 641.923 34.1421 658.489L785.498 1344.1C817.91 1373.67 864.016 1376.17 897.96 1338.97L1123.51 1091.78C1256.56 945.981 1324.68 818.16 1315.87 702.563C1315.76 698.684 1315.45 694.848 1315.16 690.994C1315.05 687.115 1314.74 683.279 1314.45 679.425C1314.34 675.546 1314.03 671.71 1313.73 667.856C1313.61 663.994 1313.31 660.141 1313.02 656.287C1312.91 652.408 1312.6 648.572 1312.31 644.718C1312.19 640.839 1311.89 637.002 1311.59 633.149C1311.47 629.287 1311.17 625.433 1310.88 621.58C1310.75 617.718 1310.46 613.864 1310.17 610.011C1307.69 531.9 1270.74 459.362 1195.5 390.711L1195.47 390.746Z" fill="#005865"/>
</svg>
