<svg width="659" height="304" viewBox="0 0 659 304" fill="none" xmlns="http://www.w3.org/2000/svg">
<g clip-path="url(#clip0_181_1694)">
<path d="M50.2107 11.9685L31.186 145.058H92.4743L91.0294 152.957H30.2227L9.27151 299.811H0L41.782 4.18896H120.289L118.844 12.0882H50.0903L50.2107 11.9685Z" fill="#F9C5A7"/>
<path d="M226.369 73.0079L224.082 87.8488C219.024 126.148 199.879 147.931 175.797 154.394C199.036 165.883 187.838 239.37 194.341 279.105C195.785 287.364 199.398 290.236 203.612 290.236C207.826 290.236 212.884 287.005 214.81 285.209L215.773 296.34C213.486 298.614 206.02 302.324 197.592 302.324C186.394 302.324 180.373 298.135 178.567 284.731C172.065 241.764 184.587 156.787 152.558 156.787H142.805L122.336 299.931H105.599L147.381 4.18896H180.855C212.402 4.18896 232.871 25.0142 226.369 73.0079ZM177.483 18.0724H162.191L144.491 142.305H159.783C182.54 142.305 201.565 126.148 207.706 85.9338L209.151 74.4441C215.171 34.7086 200.361 18.0724 177.604 18.0724H177.483Z" fill="#F9C5A7"/>
<path d="M327.634 81.7449C332.33 44.7623 329.079 23.0993 312.703 23.0993C298.254 23.0993 288.501 37.4615 283.443 71.5717L281.156 89.1654C276.941 120.523 282.119 137.638 303.913 137.638H326.189L322.938 160.258H300.662C278.868 160.258 268.633 179.169 263.937 210.646L261.168 232.309C256.111 266.539 262.131 280.781 276.46 280.781C292.715 280.781 301.505 259.118 308.007 222.135L332.691 230.394C325.225 279.345 303.913 303.88 273.209 303.88C239.735 303.88 226.731 278.507 234.196 227.641L235.641 216.151C241.661 174.142 257.435 155.232 277.423 148.29C259.241 140.869 249.127 121.48 254.184 84.4977L255.629 76.5985C262.131 28.9638 282.601 -0.119629 316.074 -0.119629C346.779 -0.119629 361.589 24.4158 355.087 73.367L327.634 81.6253V81.7449Z" fill="#F9C5A7"/>
<path d="M441.541 0C479.59 0 497.29 28.126 489.825 79.4709L448.043 92.3969L450.812 69.7764C454.545 44.4031 449.367 32.7937 437.326 32.7937C422.396 32.7937 412.281 49.9087 412.281 76.2394C412.281 131.654 468.512 156.189 468.512 220.819C468.512 270.249 443.467 304 399.277 304C361.589 304 344.009 275.874 351.354 224.529L393.136 211.603L390.367 234.224C386.634 259.597 391.33 271.206 403.853 271.206C418.783 271.206 427.573 254.57 427.573 228.718C427.573 176.057 371.342 150.683 371.342 84.6173C371.342 36.6236 397.832 0.119685 441.541 0.119685V0Z" fill="#F9C5A7"/>
<path d="M659 4.18896L617.218 299.811H567.007L585.189 170.91H552.197L534.015 299.811H483.804L525.586 4.18896H575.797L558.097 130.337H591.089L608.789 4.18896H659Z" fill="#F9C5A7"/>
</g>
<defs>
<clipPath id="clip0_181_1694">
<rect width="659" height="304" fill="white"/>
</clipPath>
</defs>
</svg>
