<svg width="10" height="10" viewBox="0 0 10 10" fill="none" xmlns="http://www.w3.org/2000/svg">
<path d="M9.51466 3.36472C9.50975 2.99582 9.44069 2.63058 9.31057 2.28534C9.19774 1.99414 9.0254 1.72968 8.80458 1.50885C8.58375 1.28802 8.31928 1.11568 8.02808 1.00285C7.68728 0.87492 7.32725 0.805747 6.96331 0.798274C6.49474 0.777329 6.34617 0.771484 5.15671 0.771484C3.96725 0.771484 3.81479 0.771484 3.34963 0.798274C2.98585 0.805801 2.62599 0.874974 2.28535 1.00285C1.9941 1.1156 1.72959 1.28791 1.50875 1.50875C1.28791 1.72959 1.1156 1.9941 1.00285 2.28534C0.874664 2.62588 0.80564 2.98583 0.798761 3.34962C0.777816 3.81869 0.771484 3.96725 0.771484 5.15671C0.771484 6.34617 0.771484 6.49814 0.798761 6.96379C0.806067 7.32813 0.874746 7.6876 1.00285 8.02905C1.11579 8.32021 1.28823 8.5846 1.50914 8.80535C1.73006 9.02609 1.99459 9.19833 2.28583 9.31105C2.62554 9.44412 2.98547 9.51825 3.35011 9.53024C3.81918 9.55118 3.96774 9.55752 5.1572 9.55752C6.34666 9.55752 6.49912 9.55752 6.96429 9.53024C7.32821 9.52308 7.68827 9.45406 8.02905 9.32615C8.32018 9.21319 8.58458 9.04081 8.80539 8.81999C9.0262 8.59918 9.19859 8.33479 9.31155 8.04366C9.43965 7.7027 9.50833 7.34323 9.51564 6.9784C9.53658 6.50983 9.54291 6.36127 9.54291 5.17132C9.54194 3.98186 9.54194 3.83086 9.51466 3.36472ZM5.15379 7.40606C3.90977 7.40606 2.90199 6.39829 2.90199 5.15427C2.90199 3.91026 3.90977 2.90248 5.15379 2.90248C5.751 2.90248 6.32376 3.13972 6.74605 3.56201C7.16834 3.98431 7.40559 4.55706 7.40559 5.15427C7.40559 5.75148 7.16834 6.32424 6.74605 6.74653C6.32376 7.16882 5.751 7.40606 5.15379 7.40606ZM7.49521 3.34427C7.42624 3.34433 7.35793 3.33079 7.29419 3.30443C7.23046 3.27806 7.17255 3.23939 7.12378 3.19062C7.07501 3.14185 7.03633 3.08394 7.00997 3.0202C6.9836 2.95647 6.97007 2.88816 6.97013 2.81919C6.97013 2.75027 6.98371 2.68202 7.01008 2.61834C7.03646 2.55467 7.07512 2.49681 7.12385 2.44807C7.17259 2.39934 7.23044 2.36068 7.29412 2.33431C7.3578 2.30793 7.42604 2.29435 7.49497 2.29435C7.56389 2.29435 7.63213 2.30793 7.69581 2.33431C7.75949 2.36068 7.81734 2.39934 7.86608 2.44807C7.91481 2.49681 7.95347 2.55467 7.97985 2.61834C8.00622 2.68202 8.0198 2.75027 8.0198 2.81919C8.0198 3.10949 7.78502 3.34427 7.49521 3.34427Z" fill="white"/>
</svg>
