<svg width="61" height="77" viewBox="0 0 61 77" fill="none" xmlns="http://www.w3.org/2000/svg">
<g clip-path="url(#clip0_252_4295)">
<path d="M60.8127 51.2688C60.8127 43.7743 56.6109 37.545 49.8684 34.5553C49.9091 34.515 49.9498 34.4666 49.9905 34.4263C50.1615 34.2571 50.3244 34.0879 50.4872 33.9186C50.6582 33.7494 50.8211 33.5802 50.984 33.4109C51.155 33.2417 51.3178 33.0725 51.4807 32.9032C51.6517 32.734 51.8146 32.5648 51.9774 32.3955C52.1484 32.2263 52.3113 32.0571 52.4742 31.8879C52.6452 31.7186 52.808 31.5494 52.9709 31.3802C55.8943 28.5516 57.5717 24.3289 57.5717 18.5912C57.588 6.5113 46.9124 0.225586 26.6605 0.225586H9.43784C7.76036 0.225586 6.46561 0.862216 5.61873 1.86148C5.43958 2.0146 5.26857 2.19189 5.122 2.36918C4.94285 2.52229 4.77184 2.69958 4.62527 2.87687C4.44612 3.02998 4.27512 3.20727 4.12854 3.38456C3.94939 3.53767 3.77839 3.71496 3.63181 3.89225C3.45266 4.04537 3.28166 4.22265 3.13508 4.39994C2.95593 4.55306 2.78493 4.73035 2.63835 4.90764C2.4592 5.06075 2.2882 5.23804 2.14162 5.41533C1.96247 5.56844 1.79147 5.74573 1.64489 5.92302C0.594431 6.81753 0.0244141 8.17137 0.0244141 9.67833V72.0842C0.0244141 74.7758 1.84033 76.9677 4.95914 76.9677H25.7078C37.9469 76.9677 46.6518 74.7677 51.5784 69.586C51.7494 69.4168 51.9123 69.2476 52.0751 69.0783C52.2461 68.9091 52.409 68.7399 52.5719 68.5706C52.7429 68.4014 52.9057 68.2322 53.0686 68.0629C53.2396 67.8937 53.4025 67.7245 53.5653 67.5553C53.7363 67.386 53.8992 67.2168 54.0621 67.0476C54.2331 66.8783 54.3959 66.7091 54.5588 66.5399C54.7298 66.3706 54.8927 66.2014 55.0555 66.0322C55.2265 65.8629 55.3894 65.6937 55.5522 65.5245C59.0294 62.1802 60.8046 57.5062 60.8046 51.2607L60.8127 51.2688Z" fill="#53B5A8"/>
<path d="M49.005 33.8945C54.4446 31.5011 57.767 26.4161 57.767 18.3414C57.7752 6.27766 47.0914 0 26.8477 0H9.61685C6.49804 0 4.68213 2.19194 4.68213 4.88352V67.2894C4.68213 69.9809 6.49804 72.1729 9.61685 72.1729H30.3655C50.4138 72.1729 60.9917 66.2901 60.9917 51.0352C60.9917 43.1619 56.3583 36.6828 49.005 33.8864V33.8945Z" fill="#005A64"/>
<path d="M9.13656 28.5678C9.15285 28.4953 9.18542 28.4792 9.25056 28.4872L9.389 28.5034C9.446 28.5034 9.47043 28.5517 9.47043 28.6001C9.46229 28.6404 9.45414 28.6806 9.45414 28.729C9.45414 29.011 9.60886 29.1158 9.87758 29.1561L10.1219 29.1883V28.7854C10.1219 28.7209 10.1626 28.6968 10.2196 28.7048L10.3336 28.7209C10.3906 28.729 10.4395 28.7612 10.4395 28.8257V29.2286L11.3189 29.3415C11.3759 29.3415 11.4166 29.3817 11.4166 29.4462V29.6074C11.4166 29.6719 11.3759 29.7041 11.3189 29.696L10.4476 29.5832V29.6235C10.4476 29.6799 10.3987 29.7041 10.3417 29.696L10.2277 29.6799C10.1707 29.6799 10.1219 29.6396 10.1219 29.5832V29.5429L9.86944 29.5107C9.42157 29.4543 9.12842 29.2528 9.12842 28.729C9.12842 28.6645 9.12842 28.6081 9.1447 28.5678H9.13656Z" fill="#53B5A8"/>
<path d="M10.2113 28.0037L11.3106 28.1488C11.3676 28.1488 11.4083 28.1971 11.4083 28.2535V28.4228C11.4083 28.4872 11.3758 28.5195 11.3106 28.5033L9.24226 28.2374C9.18526 28.2294 9.14455 28.1971 9.14455 28.1327V28.0037C9.14455 27.9392 9.18526 27.907 9.24226 27.9151L9.56799 27.9554V27.9392C9.47841 27.907 9.12012 27.7378 9.12012 27.3187C9.12012 27.2784 9.12012 27.2543 9.12826 27.2462C9.12826 27.214 9.15269 27.1979 9.19341 27.2059L9.39698 27.2301C9.45398 27.2381 9.47027 27.2623 9.47027 27.3107C9.47027 27.3107 9.47027 27.3349 9.47027 27.3913C9.47027 27.8023 9.89371 27.9554 10.2113 27.9957V28.0037Z" fill="#53B5A8"/>
<path d="M10.594 27.2946C9.64128 27.2946 9.12012 27.0045 9.12012 26.3517C9.12012 25.9246 9.41327 25.7473 9.69828 25.7473C10.3334 25.7473 10.5126 26.2872 10.5044 26.9239H10.5614C10.8872 26.9239 11.107 26.8433 11.107 26.5774C11.107 26.3114 10.9442 26.1986 10.7732 26.1583C10.7569 26.1583 10.7243 26.1422 10.7325 26.0858L10.7569 25.9004C10.765 25.844 10.7976 25.844 10.8302 25.844C11.1233 25.9004 11.4328 26.1341 11.4328 26.6176C11.4328 27.1012 11.107 27.2784 10.594 27.2784V27.2946ZM10.2357 26.9158C10.2357 26.3437 10.0077 26.0938 9.73899 26.0938C9.58427 26.0938 9.42956 26.1583 9.42956 26.3839C9.42956 26.7063 9.71456 26.8755 10.2357 26.9158Z" fill="#53B5A8"/>
<path d="M10.7569 24.5868C10.3172 24.5868 10.5044 25.5055 9.82042 25.5055C9.4947 25.5055 9.12012 25.2637 9.12012 24.7399C9.12012 24.3047 9.32369 24.1033 9.66571 24.0952C9.74714 24.0952 9.78785 24.1194 9.80414 24.1919L9.82857 24.3531C9.83671 24.4095 9.82042 24.4417 9.75528 24.4417C9.55984 24.4417 9.42956 24.5465 9.42956 24.7721C9.42956 25.03 9.59242 25.1428 9.76342 25.1428C10.1543 25.1428 10.024 24.2242 10.7243 24.2242C11.0826 24.2242 11.4165 24.4256 11.4246 25.0461C11.4246 25.5055 11.164 25.6747 10.8872 25.6828C10.8383 25.6828 10.7813 25.6586 10.765 25.578L10.7406 25.441C10.7243 25.3765 10.7569 25.3362 10.8057 25.3362C10.9605 25.3362 11.0989 25.2476 11.0989 24.9978C11.0989 24.6513 10.8872 24.5948 10.7325 24.5948L10.7569 24.5868Z" fill="#53B5A8"/>
<path d="M9.50307 23.4345V23.4184C9.42164 23.3942 9.16106 23.2492 9.16106 22.8865C9.16106 22.4111 9.5275 22.2821 9.9428 22.3385L11.3027 22.5158C11.3597 22.5239 11.4086 22.5642 11.4086 22.6286V22.7898C11.4086 22.8543 11.3678 22.8785 11.3027 22.8704L10.0079 22.7012C9.73108 22.6609 9.47864 22.7092 9.47864 23.0074C9.47864 23.3056 9.81251 23.4587 10.0079 23.4829L11.3108 23.6521C11.3678 23.6521 11.4086 23.6924 11.4086 23.7649V23.9261C11.4086 23.9905 11.3678 24.0147 11.3027 24.0067L8.85162 23.6843C8.79462 23.6843 8.75391 23.644 8.75391 23.5796V23.4345C8.75391 23.37 8.79462 23.3459 8.85162 23.3539L9.50307 23.4426V23.4345Z" fill="#53B5A8"/>
<path d="M9.13656 20.3964C9.15285 20.3239 9.18542 20.3078 9.25056 20.3159L9.389 20.332C9.446 20.332 9.47043 20.3803 9.47043 20.4287C9.46229 20.469 9.45414 20.5093 9.45414 20.5576C9.45414 20.8397 9.60886 20.9444 9.87758 20.9847L10.1219 21.017V20.614C10.1219 20.5496 10.1626 20.5254 10.2196 20.5334L10.3336 20.5496C10.3906 20.5576 10.4395 20.5898 10.4395 20.6543V21.0572L11.3189 21.1701C11.3759 21.1701 11.4166 21.2104 11.4166 21.2748V21.436C11.4166 21.5005 11.3759 21.5327 11.3189 21.5246L10.4476 21.4118V21.4521C10.4476 21.5085 10.3987 21.5327 10.3417 21.5246L10.2277 21.5085C10.1707 21.5085 10.1219 21.4682 10.1219 21.4118V21.3715L9.86944 21.3393C9.42157 21.2829 9.12842 21.0814 9.12842 20.5576C9.12842 20.4931 9.12842 20.4367 9.1447 20.3964H9.13656Z" fill="#53B5A8"/>
<path d="M10.5779 20.2997C9.64143 20.2997 9.12842 20.0177 9.12842 19.3569C9.12842 18.8733 9.40528 18.6396 9.99973 18.6396C10.9443 18.6396 11.4411 18.9217 11.4411 19.5825C11.4411 20.066 11.1723 20.2997 10.5779 20.2997ZM10.0242 19.0103C9.63329 19.0103 9.45414 19.1312 9.45414 19.3972C9.45414 19.792 9.88573 19.9451 10.5535 19.9451C10.9443 19.9451 11.1153 19.8162 11.1153 19.5583C11.1153 19.1554 10.7 19.0184 10.0242 19.0184V19.0103Z" fill="#53B5A8"/>
<path d="M10.5779 18.4784C9.64143 18.4784 9.12842 18.1964 9.12842 17.5356C9.12842 17.0521 9.40528 16.8184 9.99973 16.8184C10.9443 16.8184 11.4411 17.1004 11.4411 17.7612C11.4411 18.2447 11.1723 18.4784 10.5779 18.4784ZM10.0242 17.1891C9.63329 17.1891 9.45414 17.3099 9.45414 17.5759C9.45414 17.9707 9.88573 18.1239 10.5535 18.1239C10.9443 18.1239 11.1153 17.9949 11.1153 17.737C11.1153 17.3341 10.7 17.1971 10.0242 17.1971V17.1891Z" fill="#53B5A8"/>
<path d="M9.42131 15.3919L8.84315 15.3194C8.778 15.3113 8.76172 15.271 8.76172 15.2146V15.0534C8.76172 14.989 8.80243 14.9567 8.85944 14.9729L11.3268 15.2952C11.3838 15.2952 11.4164 15.3355 11.4164 15.4V15.545C11.4164 15.6175 11.3919 15.6417 11.3349 15.6337L11.1476 15.6095V15.6256C11.2617 15.674 11.4408 15.8271 11.4408 16.1333C11.4408 16.4879 11.1476 16.6732 10.6021 16.6732C9.73889 16.6732 9.15259 16.4153 9.15259 15.819C9.15259 15.5531 9.30731 15.4483 9.42945 15.4241V15.408L9.42131 15.3919ZM9.47017 15.7948C9.47017 16.1978 10.032 16.3025 10.5613 16.3025C10.9115 16.3025 11.1151 16.2139 11.1151 16.0124C11.1151 15.4967 10.4473 15.4564 10.0483 15.4564C9.69003 15.4564 9.47017 15.5611 9.47017 15.8029V15.7948Z" fill="#53B5A8"/>
<path d="M10.8303 14.6345C10.8303 14.4733 10.9687 14.3686 11.1397 14.3847L11.3921 14.4169C11.6853 14.4492 11.9051 14.562 11.9051 14.8118C11.9051 14.9891 11.7667 15.0536 11.6853 15.0536C11.669 15.0536 11.6527 15.0536 11.6446 15.0213L11.6283 14.9327C11.6283 14.9327 11.6283 14.9085 11.6446 14.9004C11.6853 14.9004 11.726 14.8601 11.726 14.7876C11.726 14.6829 11.6283 14.6184 11.4817 14.6023H11.4003C11.4003 14.6023 11.4247 14.6748 11.4247 14.7151C11.4247 14.8601 11.3107 14.9649 11.156 14.9649C10.9687 14.9649 10.814 14.8037 10.814 14.6264L10.8303 14.6345Z" fill="#53B5A8"/>
<path d="M9.98313 12.1846C9.70626 12.1523 9.45383 12.1926 9.45383 12.4989C9.45383 12.8051 9.77955 12.9421 9.97499 12.9663L11.3105 13.1435C11.3675 13.1435 11.4082 13.1838 11.4082 13.2564V13.4175C11.4082 13.482 11.3675 13.5062 11.3105 13.4981L9.24211 13.2322C9.1851 13.2241 9.14439 13.1919 9.14439 13.1274V12.9985C9.14439 12.926 9.1851 12.9018 9.24211 12.9098L9.4864 12.9421V12.926C9.40497 12.9018 9.11182 12.7406 9.11182 12.3457C9.11182 11.8783 9.47826 11.7575 9.89355 11.8139L11.3023 11.9992C11.3593 12.0073 11.4 12.0476 11.4 12.112V12.2732C11.4 12.3377 11.3593 12.3699 11.3023 12.3538L9.96684 12.1765L9.98313 12.1846Z" fill="#53B5A8"/>
<path d="M10.5779 11.6205C9.64143 11.6205 9.12842 11.3385 9.12842 10.6777C9.12842 10.1941 9.40528 9.96045 9.99973 9.96045C10.9443 9.96045 11.4411 10.2425 11.4411 10.9033C11.4411 11.3868 11.1723 11.6205 10.5779 11.6205ZM10.0242 10.3311C9.63329 10.3311 9.45414 10.452 9.45414 10.718C9.45414 11.1128 9.88573 11.2659 10.5535 11.2659C10.9443 11.2659 11.1153 11.137 11.1153 10.8791C11.1153 10.4762 10.7 10.3392 10.0242 10.3392V10.3311Z" fill="#53B5A8"/>
<path d="M11.3186 9.09007C11.3756 9.10619 11.4163 9.14648 11.4163 9.21901V9.40436C11.4163 9.46883 11.3674 9.50912 11.3186 9.50912L9.25836 9.73476C9.2095 9.73476 9.16064 9.71059 9.16064 9.64612V9.45271C9.16064 9.38824 9.20136 9.35601 9.25022 9.34795L10.9033 9.21901L9.25836 8.66297C9.20136 8.64685 9.16064 8.5985 9.16064 8.53403V8.39703C9.16064 8.33257 9.20136 8.30033 9.25836 8.29227L10.9114 8.1311L9.25836 7.59117C9.20136 7.57506 9.16064 7.53476 9.16064 7.46224V7.28495C9.16064 7.22854 9.2095 7.20436 9.25836 7.22048L11.3349 7.96187C11.3919 7.97799 11.4244 8.02634 11.4244 8.09081V8.27616C11.4244 8.34062 11.3837 8.38092 11.3267 8.38092L9.66552 8.51791L11.3267 9.09007H11.3186Z" fill="#53B5A8"/>
<path d="M11.2701 7.23651C11.1561 7.23651 11.0665 7.1398 11.0665 7.03504C11.0665 6.9464 11.1398 6.88193 11.2293 6.88193C11.3433 6.88193 11.4329 6.97863 11.4329 7.08339C11.4329 7.17204 11.3596 7.23651 11.2701 7.23651ZM10.7733 6.88193C10.8303 6.88999 10.871 6.92222 10.871 6.97863V7.03504C10.871 7.09145 10.8303 7.11563 10.7733 7.10757L9.22614 6.96252C9.16913 6.96252 9.12842 6.91416 9.12842 6.85775V6.70464C9.12842 6.64017 9.16913 6.616 9.22614 6.62405L10.7733 6.88193Z" fill="#53B5A8"/>
<path d="M13.3706 14.3525C13.0367 14.3525 12.8413 14.1188 12.8413 13.8287V7.14808C12.8413 6.85797 13.0367 6.62427 13.3706 6.62427H15.211C17.377 6.62427 18.5252 7.29313 18.5252 8.59057C18.5252 9.45284 18.1669 10.0008 17.5887 10.2587C18.3786 10.5569 18.8753 11.2499 18.8753 12.0961C18.8753 13.732 17.7435 14.3605 15.5937 14.3605H13.3706V14.3525ZM15.5367 8.30852H14.9829V9.71877H15.6263C16.0904 9.71877 16.4568 9.47701 16.4568 9.01767C16.4568 8.46163 16.0497 8.31657 15.5285 8.31657L15.5367 8.30852ZM15.7077 11.2418H14.9829V12.6602H15.6914C16.5627 12.6602 16.9129 12.4023 16.9129 11.9752C16.9129 11.4272 16.579 11.2418 15.7077 11.2418Z" fill="#53B5A8"/>
<path d="M22.8738 12.5311C23.2076 12.5311 23.4031 12.7648 23.4031 13.0549V13.8366C23.4031 14.1267 23.2076 14.3604 22.8738 14.3604H19.8853C19.5514 14.3604 19.356 14.1267 19.356 13.8366V13.0549C19.356 12.7648 19.5514 12.5311 19.8853 12.5311H20.3087V10.0894H19.8853C19.5514 10.0894 19.356 9.85567 19.356 9.56556V8.78387C19.356 8.49376 19.5514 8.26006 19.8853 8.26006H22.8738C23.2076 8.26006 23.4031 8.49376 23.4031 8.78387V9.56556C23.4031 9.85567 23.2076 10.0894 22.8738 10.0894H22.4503V12.5311H22.8738ZM19.8934 6.38241C19.8934 5.65713 20.5286 5.03662 21.3184 5.03662C22.1083 5.03662 22.7272 5.65713 22.7272 6.38241C22.7272 7.10768 22.0839 7.73625 21.3184 7.73625C20.553 7.73625 19.8934 7.11574 19.8934 6.38241Z" fill="#53B5A8"/>
<path d="M27.6538 12.0475C27.6538 11.0321 23.9406 11.7574 23.9406 8.89657C23.9406 7.8006 24.7711 6.5354 26.7662 6.5354C28.5984 6.5354 29.5512 7.3332 29.7547 8.53394C29.7954 8.77569 29.6977 9.05774 29.3231 9.12221L28.2808 9.29144C28.0121 9.33174 27.8085 9.2995 27.8085 9.12221C27.8085 8.69511 27.3851 8.32441 26.8232 8.32441C26.3183 8.32441 26.0903 8.56617 26.0903 8.95298C26.0903 9.97643 29.8199 9.44456 29.8199 12.2651C29.8199 13.4416 29.0544 14.4248 26.7662 14.4409C24.9747 14.4651 24.1441 13.5142 23.9487 12.4907C23.8917 12.257 23.9406 11.975 24.3559 11.9024L25.3249 11.7413C25.6343 11.6849 25.8868 11.701 25.8868 11.983C25.8868 12.3054 26.2776 12.668 26.8151 12.668C27.4828 12.668 27.6457 12.3779 27.6457 12.0475H27.6538Z" fill="#53B5A8"/>
<path d="M35.3731 6.62427C35.7069 6.62427 35.9024 6.85797 35.9024 7.14808V7.92976C35.9024 8.21987 35.7069 8.45357 35.3731 8.45357H34.1027V13.8367C34.1027 14.1268 33.9073 14.3605 33.5734 14.3605H32.4822C32.1484 14.3605 31.9529 14.1268 31.9529 13.8367V8.45357H30.6826C30.3488 8.45357 30.1533 8.21987 30.1533 7.92976V7.14808C30.1533 6.85797 30.3488 6.62427 30.6826 6.62427H35.3731Z" fill="#53B5A8"/>
<path d="M41.7249 11.7413C42.4008 12.3618 43.4431 12.6035 45.4463 12.6035C45.9838 12.6035 46.6434 12.531 47.0994 12.4988C47.4984 12.4665 47.6206 12.6922 47.6206 12.9662V13.7479C47.6206 14.0138 47.4984 14.2797 47.0994 14.3281C46.6922 14.3684 46.0408 14.449 45.1369 14.449C42.181 14.449 41.0572 13.7881 40.2429 12.9662L39.2169 11.9024H38.6468V13.8446C38.6468 14.1347 38.4677 14.3684 38.1175 14.3684H37.0264C36.6844 14.3684 36.4971 14.1347 36.4971 13.8446V7.16397C36.4971 6.87386 36.6844 6.64016 37.0264 6.64016H39.2983C41.2038 6.64016 42.4985 7.29291 42.4985 9.40427C42.4985 10.2907 41.9774 10.9435 41.2934 11.3544L41.7249 11.7493V11.7413ZM39.3553 8.46141H38.6468V10.2585H39.453C40.08 10.2585 40.5523 9.98448 40.5523 9.36397C40.5523 8.74346 40.0312 8.46947 39.3553 8.46947V8.46141ZM45.4708 12.1764C43.6711 12.1764 42.8894 11.161 42.8894 9.35591C42.8894 7.55079 43.663 6.5354 45.4708 6.5354C47.2785 6.5354 48.0521 7.55079 48.0521 9.35591C48.0521 11.161 47.2785 12.1764 45.4708 12.1764ZM45.4708 10.6614C45.9919 10.6614 46.2037 10.194 46.2037 9.35591C46.2037 8.51782 45.9919 8.05042 45.4708 8.05042C44.9496 8.05042 44.7379 8.51782 44.7379 9.35591C44.7379 10.194 44.9578 10.6614 45.4708 10.6614Z" fill="#53B5A8"/>
<path d="M13.8022 29.5508C13.1915 29.5508 12.8413 29.1237 12.8413 28.5999V16.4314C12.8413 15.9076 13.1915 15.4805 13.8022 15.4805H17.1653C21.1147 15.4805 23.1993 16.7054 23.1993 19.0585C23.1993 20.6299 22.5479 21.6211 21.4893 22.0885C22.9225 22.6365 23.8264 23.8937 23.8264 25.4328C23.8264 28.4065 21.7662 29.5508 17.8493 29.5508H13.8022ZM17.7516 18.5427H16.75V21.1054H17.9307C18.7776 21.1054 19.4454 20.6541 19.4454 19.8241C19.4454 18.8167 18.6962 18.5427 17.7597 18.5427H17.7516ZM18.0692 23.8856H16.75V26.4724H18.0448C19.6327 26.4724 20.2678 26.005 20.2678 25.2314C20.2678 24.2402 19.6571 23.8856 18.0692 23.8856Z" fill="#53B5A8"/>
<path d="M30.2758 29.712C26.3672 29.712 24.6001 27.5926 24.6001 22.5963C24.6001 17.5999 26.3672 15.3274 30.2758 15.3274C34.1845 15.3274 35.9516 17.5999 35.9516 22.5963C35.9516 27.5926 34.1845 29.712 30.2758 29.712ZM30.2758 26.271C31.4973 26.271 32.0022 25.1992 32.0022 22.5963C32.0022 19.9933 31.4892 18.7684 30.2758 18.7684C29.0625 18.7684 28.5495 19.9127 28.5495 22.5963C28.5495 25.2798 29.0625 26.271 30.2758 26.271Z" fill="#53B5A8"/>
<path d="M40.5197 28.7208C40.2428 29.2285 39.7706 29.5589 39.1028 29.5589H36.5703C36.0573 29.5589 35.8619 29.0915 36.0817 28.7208L39.4611 22.7332L36.0654 16.3347C35.8456 15.9479 36.0492 15.4805 36.5785 15.4805H39.111C39.7787 15.4805 40.251 15.8109 40.5034 16.3347L42.018 19.3647L43.5327 16.3347C43.7851 15.8109 44.2574 15.4805 44.9251 15.4805H47.4576C47.9869 15.4805 48.1824 15.9479 47.9707 16.3347L44.575 22.7493L47.9544 28.7208C48.1742 29.0915 47.9707 29.5589 47.4658 29.5589H44.9333C44.2655 29.5589 43.7932 29.2123 43.5001 28.7208L42.0099 26.0534L40.536 28.7208H40.5197Z" fill="#53B5A8"/>
</g>
<defs>
<clipPath id="clip0_252_4295">
<rect width="61" height="77" fill="white"/>
</clipPath>
</defs>
</svg>
