<svg width="163" height="207" viewBox="0 0 163 207" fill="none" xmlns="http://www.w3.org/2000/svg">
<g clip-path="url(#clip0_474_1011)">
<path d="M162.5 137.827C162.5 117.679 151.272 100.933 133.255 92.8955C133.364 92.7872 133.473 92.6572 133.581 92.5489C134.038 92.094 134.474 91.639 134.909 91.1841C135.366 90.7291 135.801 90.2742 136.236 89.8192C136.693 89.3643 137.128 88.9094 137.563 88.4544C138.02 87.9995 138.455 87.5445 138.891 87.0896C139.348 86.6346 139.783 86.1797 140.218 85.7247C140.675 85.2698 141.11 84.8148 141.545 84.3599C149.357 76.7558 153.839 65.4039 153.839 49.9791C153.883 17.5046 125.356 0.606689 71.2406 0.606689H25.2193C20.7369 0.606689 17.2771 2.31815 15.0142 5.00449C14.5355 5.41611 14.0785 5.89272 13.6868 6.36933C13.2081 6.78094 12.7512 7.25755 12.3595 7.73416C11.8808 8.14578 11.4239 8.62239 11.0322 9.099C10.5535 9.51061 10.0965 9.98722 9.70486 10.4638C9.22616 10.8754 8.76921 11.3521 8.37754 11.8287C7.89883 12.2403 7.44188 12.7169 7.05021 13.1935C6.5715 13.6051 6.11456 14.0817 5.72289 14.5583C5.24418 14.97 4.78723 15.4466 4.39556 15.9232C1.58859 18.3279 0.0654297 21.9674 0.0654297 26.0186V193.785C0.0654297 201.021 4.91779 206.913 13.2517 206.913H68.6947C101.399 206.913 124.66 200.999 137.824 187.069C138.281 186.614 138.717 186.159 139.152 185.704C139.609 185.249 140.044 184.794 140.479 184.339C140.936 183.885 141.371 183.43 141.806 182.975C142.263 182.52 142.699 182.065 143.134 181.61C143.591 181.155 144.026 180.7 144.461 180.245C144.918 179.79 145.353 179.335 145.788 178.88C146.245 178.425 146.681 177.97 147.116 177.515C147.573 177.06 148.008 176.605 148.443 176.15C157.734 167.16 162.478 154.595 162.478 137.805L162.5 137.827Z" fill="#53B5A8"/>
<path d="M130.948 91.119C145.484 84.6848 154.362 71.0148 154.362 49.3074C154.383 16.8763 125.835 0 71.7409 0H25.6979C17.3641 0 12.5117 5.89262 12.5117 13.1284V180.895C12.5117 188.131 17.3641 194.023 25.6979 194.023H81.141C134.713 194.023 162.978 178.208 162.978 137.198C162.978 116.033 150.597 98.6148 130.948 91.0973V91.119Z" fill="#005865"/>
<path d="M24.4143 76.7991C24.4579 76.6041 24.5449 76.5608 24.719 76.5825L25.0889 76.6258C25.2412 76.6258 25.3065 76.7558 25.3065 76.8858C25.2847 76.9941 25.263 77.1024 25.263 77.2324C25.263 77.9906 25.6764 78.2723 26.3944 78.3806L27.0472 78.4672V77.384C27.0472 77.2107 27.156 77.1457 27.3083 77.1674L27.613 77.2107C27.7653 77.2324 27.8958 77.319 27.8958 77.4924V78.5756L30.2459 78.8789C30.3982 78.8789 30.507 78.9872 30.507 79.1605V79.5938C30.507 79.7671 30.3982 79.8537 30.2459 79.8321L27.9176 79.5288V79.6371C27.9176 79.7887 27.7871 79.8537 27.6347 79.8321L27.3301 79.7887C27.1778 79.7887 27.0472 79.6804 27.0472 79.5288V79.4205L26.3727 79.3338C25.1759 79.1821 24.3926 78.6406 24.3926 77.2324C24.3926 77.0591 24.3926 76.9074 24.4361 76.7991H24.4143Z" fill="white"/>
<path d="M27.2864 75.2826L30.2239 75.6725C30.3762 75.6725 30.485 75.8025 30.485 75.9542V76.4091C30.485 76.5824 30.398 76.6691 30.2239 76.6258L24.697 75.9108C24.5447 75.8892 24.4359 75.8025 24.4359 75.6292V75.2826C24.4359 75.1093 24.5447 75.0226 24.697 75.0443L25.5674 75.1526V75.1093C25.328 75.0226 24.3706 74.5677 24.3706 73.4411C24.3706 73.3328 24.3706 73.2678 24.3924 73.2462C24.3924 73.1595 24.4576 73.1162 24.5664 73.1378L25.1104 73.2028C25.2627 73.2245 25.3063 73.2895 25.3063 73.4195C25.3063 73.4195 25.3063 73.4845 25.3063 73.6361C25.3063 74.741 26.4378 75.1526 27.2864 75.2609V75.2826Z" fill="white"/>
<path d="M28.3091 73.3763C25.7632 73.3763 24.3706 72.5964 24.3706 70.8416C24.3706 69.6934 25.1539 69.2168 25.9155 69.2168C27.6128 69.2168 28.0915 70.6683 28.0697 72.3797H28.222C29.0924 72.3797 29.6799 72.1631 29.6799 71.4482C29.6799 70.7333 29.2447 70.43 28.7878 70.3217C28.7443 70.3217 28.6572 70.2783 28.679 70.1267L28.7443 69.6284C28.766 69.4768 28.8531 69.4768 28.9401 69.4768C29.7234 69.6284 30.5503 70.2567 30.5503 71.5565C30.5503 72.8564 29.6799 73.333 28.3091 73.333V73.3763ZM27.3516 72.3581C27.3516 70.8199 26.7424 70.1484 26.0243 70.1484C25.6109 70.1484 25.1975 70.3217 25.1975 70.9283C25.1975 71.7948 25.959 72.2498 27.3516 72.3581Z" fill="white"/>
<path d="M28.7443 66.0969C27.5692 66.0969 28.0697 68.5666 26.2419 68.5666C25.3715 68.5666 24.3706 67.9167 24.3706 66.5085C24.3706 65.3387 24.9146 64.7971 25.8285 64.7754C26.0461 64.7754 26.1549 64.8404 26.1984 65.0354L26.2637 65.4686C26.2854 65.6203 26.2419 65.7069 26.0678 65.7069C25.5456 65.7069 25.1975 65.9886 25.1975 66.5952C25.1975 67.2884 25.6327 67.5917 26.0896 67.5917C27.1341 67.5917 26.7859 65.122 28.6572 65.122C29.6146 65.122 30.5068 65.6636 30.5285 67.3317C30.5285 68.5666 29.8322 69.0215 29.0924 69.0432C28.9618 69.0432 28.8095 68.9782 28.766 68.7616L28.7007 68.3933C28.6572 68.22 28.7443 68.1117 28.8748 68.1117C29.2882 68.1117 29.6582 67.8734 29.6582 67.2018C29.6582 66.2702 29.0924 66.1186 28.679 66.1186L28.7443 66.0969Z" fill="white"/>
<path d="M25.3935 62.9991V62.9557C25.1759 62.8907 24.4796 62.5008 24.4796 61.5259C24.4796 60.2477 25.4587 59.9011 26.5685 60.0528L30.2023 60.5294C30.3546 60.551 30.4852 60.6593 30.4852 60.8327V61.2659C30.4852 61.4393 30.3764 61.5042 30.2023 61.4826L26.7426 61.0276C26.0027 60.9193 25.3282 61.0493 25.3282 61.8509C25.3282 62.6524 26.2203 63.0641 26.7426 63.129L30.2241 63.584C30.3764 63.584 30.4852 63.6923 30.4852 63.8873V64.3206C30.4852 64.4939 30.3764 64.5589 30.2023 64.5372L23.6527 63.6707C23.5004 63.6707 23.3916 63.5623 23.3916 63.389V62.9991C23.3916 62.8258 23.5004 62.7608 23.6527 62.7824L25.3935 63.0207V62.9991Z" fill="white"/>
<path d="M24.4143 54.8318C24.4579 54.6368 24.5449 54.5935 24.719 54.6152L25.0889 54.6585C25.2412 54.6585 25.3065 54.7885 25.3065 54.9185C25.2847 55.0268 25.263 55.1351 25.263 55.2651C25.263 56.0233 25.6764 56.305 26.3944 56.4133L27.0472 56.5V55.4167C27.0472 55.2434 27.156 55.1784 27.3083 55.2001L27.613 55.2434C27.7653 55.2651 27.8958 55.3518 27.8958 55.5251V56.6083L30.2459 56.9116C30.3982 56.9116 30.507 57.0199 30.507 57.1932V57.6265C30.507 57.7998 30.3982 57.8864 30.2459 57.8648L27.9176 57.5615V57.6698C27.9176 57.8215 27.7871 57.8864 27.6347 57.8648L27.3301 57.8215C27.1778 57.8215 27.0472 57.7131 27.0472 57.5615V57.4532L26.3727 57.3665C25.1759 57.2149 24.3926 56.6733 24.3926 55.2651C24.3926 55.0918 24.3926 54.9401 24.4361 54.8318H24.4143Z" fill="white"/>
<path d="M28.2658 54.5719C25.7634 54.5719 24.3926 53.8137 24.3926 52.0372C24.3926 50.7374 25.1324 50.1091 26.7208 50.1091C29.2449 50.1091 30.5723 50.8674 30.5723 52.6438C30.5723 53.9437 29.8542 54.5719 28.2658 54.5719ZM26.7861 51.1057C25.7417 51.1057 25.263 51.4306 25.263 52.1456C25.263 53.2071 26.4162 53.6187 28.2005 53.6187C29.2449 53.6187 29.7019 53.2721 29.7019 52.5788C29.7019 51.4956 28.5922 51.1273 26.7861 51.1273V51.1057Z" fill="white"/>
<path d="M28.2658 49.6759C25.7634 49.6759 24.3926 48.9177 24.3926 47.1412C24.3926 45.8414 25.1324 45.2131 26.7208 45.2131C29.2449 45.2131 30.5723 45.9714 30.5723 47.7478C30.5723 49.0477 29.8542 49.6759 28.2658 49.6759ZM26.7861 46.2097C25.7417 46.2097 25.263 46.5346 25.263 47.2496C25.263 48.3111 26.4162 48.7227 28.2005 48.7227C29.2449 48.7227 29.7019 48.3761 29.7019 47.6828C29.7019 46.5996 28.5922 46.2313 26.7861 46.2313V46.2097Z" fill="white"/>
<path d="M25.1761 41.3783L23.6312 41.1833C23.4571 41.1617 23.4136 41.0533 23.4136 40.9017V40.4684C23.4136 40.2951 23.5224 40.2084 23.6747 40.2518L30.2678 41.1183C30.4201 41.1183 30.5072 41.2266 30.5072 41.4V41.7899C30.5072 41.9849 30.4419 42.0499 30.2896 42.0282L29.7891 41.9632V42.0066C30.0937 42.1365 30.5724 42.5482 30.5724 43.3714C30.5724 44.3246 29.7891 44.8229 28.3312 44.8229C26.0247 44.8229 24.458 44.1296 24.458 42.5265C24.458 41.8116 24.8715 41.5299 25.1978 41.4649V41.4216L25.1761 41.3783ZM25.3066 42.4615C25.3066 43.5447 26.808 43.8263 28.2224 43.8263C29.1581 43.8263 29.7021 43.588 29.7021 43.0464C29.7021 41.6599 27.9178 41.5516 26.8516 41.5516C25.8942 41.5516 25.3066 41.8332 25.3066 42.4832V42.4615Z" fill="white"/>
<path d="M28.9405 39.342C28.9405 38.9087 29.3104 38.6271 29.7674 38.6704L30.4419 38.7571C31.2252 38.8437 31.8127 39.147 31.8127 39.8186C31.8127 40.2952 31.4428 40.4685 31.2252 40.4685C31.1817 40.4685 31.1382 40.4685 31.1164 40.3819L31.0729 40.1436C31.0729 40.1436 31.0729 40.0786 31.1164 40.0569C31.2252 40.0569 31.334 39.9486 31.334 39.7536C31.334 39.472 31.0729 39.2987 30.6812 39.2553H30.4637C30.4637 39.2553 30.5289 39.4503 30.5289 39.5586C30.5289 39.9486 30.2243 40.2302 29.8109 40.2302C29.3104 40.2302 28.897 39.7969 28.897 39.3203L28.9405 39.342Z" fill="white"/>
<path d="M26.6774 32.7562C25.9376 32.6695 25.263 32.7778 25.263 33.6011C25.263 34.4243 26.1334 34.7926 26.6556 34.8576L30.2242 35.3342C30.3765 35.3342 30.4853 35.4425 30.4853 35.6375V36.0708C30.4853 36.2441 30.3765 36.3091 30.2242 36.2874L24.6973 35.5725C24.545 35.5508 24.4362 35.4642 24.4362 35.2909V34.9443C24.4362 34.7493 24.545 34.6843 24.6973 34.7059L25.3501 34.7926V34.7493C25.1325 34.6843 24.3491 34.251 24.3491 33.1895C24.3491 31.9329 25.3283 31.608 26.438 31.7596L30.2024 32.2579C30.3547 32.2796 30.4635 32.3879 30.4635 32.5612V32.9945C30.4635 33.1678 30.3547 33.2545 30.2024 33.2111L26.6339 32.7345L26.6774 32.7562Z" fill="white"/>
<path d="M28.2658 31.2399C25.7634 31.2399 24.3926 30.4817 24.3926 28.7052C24.3926 27.4054 25.1324 26.7771 26.7208 26.7771C29.2449 26.7771 30.5723 27.5353 30.5723 29.3118C30.5723 30.6116 29.8542 31.2399 28.2658 31.2399ZM26.7861 27.7736C25.7417 27.7736 25.263 28.0986 25.263 28.8135C25.263 29.8751 26.4162 30.2867 28.2005 30.2867C29.2449 30.2867 29.7019 29.9401 29.7019 29.2468C29.7019 28.1636 28.5922 27.7953 26.7861 27.7953V27.7736Z" fill="white"/>
<path d="M30.2457 24.4369C30.3981 24.4803 30.5069 24.5886 30.5069 24.7836V25.2818C30.5069 25.4552 30.3763 25.5635 30.2457 25.5635L24.7406 26.1701C24.61 26.1701 24.4795 26.1051 24.4795 25.9318V25.4118C24.4795 25.2385 24.5883 25.1519 24.7188 25.1302L29.136 24.7836L24.7406 23.2887C24.5883 23.2454 24.4795 23.1154 24.4795 22.9421V22.5738C24.4795 22.4005 24.5883 22.3139 24.7406 22.2922L29.1578 21.8589L24.7406 20.4074C24.5883 20.3641 24.4795 20.2558 24.4795 20.0608V19.5842C24.4795 19.4325 24.61 19.3676 24.7406 19.4109L30.2893 21.404C30.4416 21.4473 30.5286 21.5773 30.5286 21.7506V22.2489C30.5286 22.4222 30.4198 22.5305 30.2675 22.5305L25.8286 22.8988L30.2675 24.4369H30.2457Z" fill="white"/>
<path d="M30.1153 19.4542C29.8107 19.4542 29.5713 19.1942 29.5713 18.9126C29.5713 18.6743 29.7672 18.501 30.0065 18.501C30.3111 18.501 30.5505 18.7609 30.5505 19.0426C30.5505 19.2809 30.3547 19.4542 30.1153 19.4542ZM28.788 18.501C28.9403 18.5226 29.0491 18.6093 29.0491 18.7609V18.9126C29.0491 19.0642 28.9403 19.1292 28.788 19.1076L24.6537 18.7176C24.5014 18.7176 24.3926 18.5876 24.3926 18.436V18.0244C24.3926 17.8511 24.5014 17.7861 24.6537 17.8077L28.788 18.501Z" fill="white"/>
<path d="M35.7288 38.5837C34.8367 38.5837 34.3145 37.9554 34.3145 37.1755V19.216C34.3145 18.4361 34.8367 17.8079 35.7288 17.8079H40.6465C46.4345 17.8079 49.5025 19.606 49.5025 23.0939C49.5025 25.4119 48.5451 26.8851 47.0002 27.5783C49.1109 28.3799 50.4382 30.243 50.4382 32.5178C50.4382 36.9156 47.4136 38.6053 41.6691 38.6053H35.7288V38.5837ZM41.5168 22.3356H40.0372V26.1269H41.7562C42.9965 26.1269 43.9756 25.4769 43.9756 24.2421C43.9756 22.7473 42.8877 22.3573 41.4951 22.3573L41.5168 22.3356ZM41.9738 30.2214H40.0372V34.0342H41.9303C44.2585 34.0342 45.1942 33.341 45.1942 32.1928C45.1942 30.7196 44.302 30.2214 41.9738 30.2214Z" fill="white"/>
<path d="M61.1222 33.6876C62.0144 33.6876 62.5366 34.3159 62.5366 35.0958V37.1972C62.5366 37.9771 62.0144 38.6053 61.1222 38.6053H53.1365C52.2444 38.6053 51.7222 37.9771 51.7222 37.1972V35.0958C51.7222 34.3159 52.2444 33.6876 53.1365 33.6876H54.268V27.1234H53.1365C52.2444 27.1234 51.7222 26.4951 51.7222 25.7152V23.6138C51.7222 22.8339 52.2444 22.2057 53.1365 22.2057H61.1222C62.0144 22.2057 62.5366 22.8339 62.5366 23.6138V25.7152C62.5366 26.4951 62.0144 27.1234 61.1222 27.1234H59.9908V33.6876H61.1222ZM53.1583 17.1579C53.1583 15.2082 54.8555 13.54 56.9662 13.54C59.0769 13.54 60.7306 15.2082 60.7306 17.1579C60.7306 19.1077 59.0116 20.7975 56.9662 20.7975C54.9208 20.7975 53.1583 19.1294 53.1583 17.1579Z" fill="white"/>
<path d="M73.895 32.3878C73.895 29.6581 63.9727 31.6079 63.9727 23.9171C63.9727 20.9708 66.1922 17.5696 71.5232 17.5696C76.4191 17.5696 78.965 19.7143 79.509 22.9423C79.6178 23.5922 79.3566 24.3504 78.3557 24.5237L75.5705 24.9787C74.8524 25.087 74.3085 25.0003 74.3085 24.5237C74.3085 23.3755 73.177 22.379 71.6756 22.379C70.3265 22.379 69.7172 23.0289 69.7172 24.0688C69.7172 26.8201 79.683 25.3903 79.683 32.9727C79.683 36.1357 77.6377 38.7787 71.5232 38.822C66.7362 38.887 64.5167 36.3306 63.9945 33.5793C63.8422 32.9511 63.9727 32.1928 65.0825 31.9978L67.6718 31.5646C68.4987 31.4129 69.1732 31.4562 69.1732 32.2145C69.1732 33.081 70.2177 34.0559 71.6538 34.0559C73.4381 34.0559 73.8733 33.276 73.8733 32.3878H73.895Z" fill="white"/>
<path d="M94.523 17.8079C95.4151 17.8079 95.9374 18.4361 95.9374 19.216V21.3174C95.9374 22.0973 95.4151 22.7256 94.523 22.7256H91.1285V37.1972C91.1285 37.9771 90.6063 38.6053 89.7142 38.6053H86.7984C85.9063 38.6053 85.384 37.9771 85.384 37.1972V22.7256H81.9896C81.0974 22.7256 80.5752 22.0973 80.5752 21.3174V19.216C80.5752 18.4361 81.0974 17.8079 81.9896 17.8079H94.523Z" fill="white"/>
<path d="M111.495 31.5646C113.301 33.2327 116.087 33.8826 121.44 33.8826C122.876 33.8826 124.638 33.6876 125.857 33.601C126.923 33.5143 127.249 34.1209 127.249 34.8575V36.9589C127.249 37.6738 126.923 38.3887 125.857 38.5187C124.769 38.627 123.028 38.8437 120.613 38.8437C112.714 38.8437 109.711 37.0672 107.535 34.8575L104.794 31.9978H103.27V37.2189C103.27 37.9988 102.792 38.627 101.856 38.627H98.9402C98.0263 38.627 97.5259 37.9988 97.5259 37.2189V19.2594C97.5259 18.4795 98.0263 17.8512 98.9402 17.8512H105.011C110.103 17.8512 113.563 19.606 113.563 25.282C113.563 27.665 112.17 29.4198 110.342 30.5247L111.495 31.5862V31.5646ZM105.163 22.7473H103.27V27.5784H105.425C107.1 27.5784 108.362 26.8418 108.362 25.1737C108.362 23.5055 106.969 22.769 105.163 22.769V22.7473ZM121.505 32.7344C116.696 32.7344 114.607 30.0047 114.607 25.152C114.607 20.2993 116.674 17.5696 121.505 17.5696C126.335 17.5696 128.403 20.2993 128.403 25.152C128.403 30.0047 126.335 32.7344 121.505 32.7344ZM121.505 28.6616C122.897 28.6616 123.463 27.4051 123.463 25.152C123.463 22.8989 122.897 21.6424 121.505 21.6424C120.112 21.6424 119.546 22.8989 119.546 25.152C119.546 27.4051 120.134 28.6616 121.505 28.6616Z" fill="white"/>
<path d="M36.8821 79.4421C35.2501 79.4421 34.3145 78.2939 34.3145 76.8858V44.1731C34.3145 42.7649 35.2501 41.6167 36.8821 41.6167H45.8687C56.422 41.6167 61.9925 44.9096 61.9925 51.2355C61.9925 55.46 60.2517 58.1247 57.423 59.3812C61.2526 60.8544 63.6679 64.234 63.6679 68.3718C63.6679 76.3658 58.1628 79.4421 47.6965 79.4421H36.8821ZM47.4354 49.849H44.759V56.7382H47.9141C50.1771 56.7382 51.9614 55.525 51.9614 53.2936C51.9614 50.5856 49.9595 49.849 47.4572 49.849H47.4354ZM48.284 64.2123H44.759V71.1665H48.2187C52.4618 71.1665 54.1591 69.9099 54.1591 67.8302C54.1591 65.1655 52.5271 64.2123 48.284 64.2123Z" fill="white"/>
<path d="M80.9012 79.8754C70.4567 79.8754 65.7349 74.1778 65.7349 60.7461C65.7349 47.3143 70.4567 41.2051 80.9012 41.2051C91.3457 41.2051 96.0675 47.3143 96.0675 60.7461C96.0675 74.1778 91.3457 79.8754 80.9012 79.8754ZM80.9012 70.6249C84.1651 70.6249 85.5142 67.7435 85.5142 60.7461C85.5142 53.7486 84.1434 50.4556 80.9012 50.4556C77.659 50.4556 76.2882 53.5319 76.2882 60.7461C76.2882 67.9602 77.659 70.6249 80.9012 70.6249Z" fill="white"/>
<path d="M108.275 77.2107C107.535 78.5756 106.273 79.4638 104.489 79.4638H97.7213C96.3505 79.4638 95.8283 78.2073 96.4158 77.2107L105.446 61.1143L96.3722 43.9131C95.7847 42.8732 96.3287 41.6167 97.7431 41.6167H104.51C106.295 41.6167 107.557 42.5049 108.231 43.9131L112.278 52.0588L116.326 43.9131C117 42.5049 118.262 41.6167 120.047 41.6167H126.814C128.228 41.6167 128.75 42.8732 128.185 43.9131L119.111 61.1577L128.141 77.2107C128.729 78.2073 128.185 79.4638 126.835 79.4638H120.068C118.284 79.4638 117.022 78.5322 116.239 77.2107L112.257 70.0399L108.318 77.2107H108.275Z" fill="white"/>
</g>
<defs>
<clipPath id="clip0_474_1011">
<rect width="163" height="207" fill="white"/>
</clipPath>
</defs>
</svg>
