<svg width="33" height="35" viewBox="0 0 33 35" fill="none" xmlns="http://www.w3.org/2000/svg">
<path d="M9.1601 3.16563C9.12271 3.09349 9.0999 3.01469 9.09297 2.93372C9.08605 2.85276 9.09514 2.77123 9.11973 2.69378C9.14432 2.61633 9.18394 2.54449 9.2363 2.48236C9.28867 2.42022 9.35276 2.36901 9.42492 2.33166C11.6392 1.20567 14.0988 0.648437 16.5822 0.710194C19.0655 0.771951 21.4944 1.45076 23.65 2.68541C23.7207 2.72607 23.7826 2.78033 23.8323 2.84505C23.8819 2.90977 23.9182 2.98368 23.9391 3.06252C23.9601 3.14135 23.9652 3.22355 23.9542 3.30436C23.9432 3.38518 23.9163 3.46302 23.875 3.53339L16.754 15.7547C16.6996 15.8483 16.6216 15.9259 16.5278 15.9798C16.4339 16.0337 16.3276 16.062 16.2194 16.0619H16.2036C16.0928 16.0589 15.9848 16.0263 15.8907 15.9675C15.7967 15.9087 15.7202 15.8258 15.669 15.7274L9.1601 3.16563ZM15.8374 19.3212V19.32L9.32819 6.75819C9.25259 6.61276 9.12253 6.50314 8.96639 6.45327C8.81026 6.4034 8.64073 6.41732 8.49483 6.492C6.76006 7.38151 5.21803 8.60485 3.95726 10.0918C2.69648 11.5788 1.74178 13.3001 1.14794 15.157C0.554103 17.0139 0.332825 18.9698 0.496807 20.9124C0.660789 22.855 1.2068 24.7461 2.10351 26.4772C3.00021 28.2082 4.22995 29.7451 5.72215 30.9997C7.21435 32.2543 8.93963 33.2019 10.799 33.788C12.6583 34.3741 14.6151 34.5872 16.557 34.4152C18.4989 34.2431 20.3877 33.6893 22.1151 32.7854C22.2601 32.7094 22.3693 32.5791 22.4187 32.423C22.4681 32.2668 22.4537 32.0975 22.3788 31.9519L15.8374 19.3212ZM23.4674 31.1947L23.5169 31.2938C23.5918 31.4399 23.7206 31.551 23.8762 31.6035C23.94 31.6246 24.0073 31.633 24.0743 31.6282C24.1723 31.6255 24.2689 31.6045 24.3592 31.5663C24.5847 31.4546 24.8039 31.3305 25.0157 31.1947C25.6457 30.8292 26.2462 30.4151 26.8117 29.9561H22.8233L23.4674 31.1947ZM22.1792 28.7174H28.1618C28.5465 28.3309 28.9025 27.917 29.2271 27.4788H21.5351L22.1792 28.7174ZM20.9034 26.2402H30.1065C30.3602 25.8425 30.5878 25.4287 30.7878 25.0015H20.2593L20.9034 26.2402ZM19.6152 23.7629H31.3328C31.4971 23.3585 31.6377 22.945 31.7539 22.5242H18.9711L19.6152 23.7629ZM18.327 21.2856H32.0636C32.1379 20.8768 32.1998 20.4681 32.237 20.0469H17.6953L18.327 21.2856ZM24.9662 5.62917C24.8966 5.58594 24.8187 5.55805 24.7375 5.54737C24.6563 5.53669 24.5738 5.54346 24.4955 5.56724C24.4152 5.58556 24.3397 5.62034 24.2736 5.66938C24.2075 5.71842 24.1523 5.78065 24.1115 5.85212L23.7771 6.4219H26.1676C25.7816 6.13636 25.3805 5.87174 24.9662 5.62917ZM27.6664 7.66054H23.0586L22.3402 8.89918H28.8431C28.4766 8.46257 28.0836 8.04891 27.6664 7.66054ZM29.7721 10.1378H21.6094L20.891 11.3765H30.5277C30.3042 10.9469 30.0517 10.5331 29.7721 10.1378ZM31.1222 12.6151H20.1726L19.4542 13.8537H31.6053C31.468 13.432 31.3067 13.0184 31.1222 12.6151ZM31.9521 15.0924H18.7234L18.005 16.331H32.175C32.1259 15.914 32.0514 15.5004 31.9521 15.0924ZM32.2989 17.5697H17.2866L16.9893 18.0775C16.9356 18.1669 16.9063 18.2689 16.9041 18.3731C16.9019 18.4774 16.927 18.5805 16.9769 18.6721L17.0512 18.8083H32.3237C32.3361 18.6844 32.3361 18.5482 32.3361 18.4243C32.3361 18.1394 32.3237 17.8546 32.2989 17.5697Z" fill="#61B4A9"/>
<path d="M8.87561 5.88004C8.64857 5.44981 8.11419 5.28302 7.69736 5.5338C4.39748 7.51916 1.93209 10.6551 0.788681 14.3539C-0.441688 18.3341 -0.0405617 22.6399 1.90382 26.3243C3.8482 30.0087 7.17655 32.7698 11.1567 34.0002C14.8555 35.1436 18.8357 34.8779 22.3369 33.2741C22.7792 33.0715 22.943 32.5363 22.716 32.106L15.7958 18.993L8.87561 5.88004Z" fill="#61B4A9"/>
</svg>
