<svg width="110" height="111" viewBox="0 0 110 111" fill="none" xmlns="http://www.w3.org/2000/svg">
<g clip-path="url(#clip0_249_3854)">
<path d="M110 45.1174C109.643 47.2679 109.387 49.4298 108.916 51.563C105.145 68.4847 90.5976 81.4851 73.2977 83.4487C52.5034 85.8119 33.4923 72.8776 28.0852 52.6871C23.0088 33.6983 32.6237 13.1484 50.493 4.82551C55.001 2.6857 59.8576 1.3749 64.8304 0.955875C65.038 0.92022 65.2413 0.863383 65.4373 0.786255L71.2499 0.786255C72.6592 0.996124 74.0714 1.18012 75.4778 1.41586C91.8401 4.14416 105.326 16.857 108.916 32.9853C109.396 35.1386 109.646 37.3408 110 39.52V45.1174ZM65.2302 21.454V45.4596H89.2659V39.0226H71.6152V21.454H65.2302Z" fill="white"/>
<path d="M31.9649 83.2417L12.275 103.061L7.82568 98.5995L27.4667 78.7626L31.9649 83.2417Z" fill="white"/>
<path d="M44.6373 86.1942L49.0061 90.4836L32.0054 107.635L27.6279 103.286L44.6373 86.1942Z" fill="white"/>
<path d="M7.43185 83.1785L3.11768 78.9207C8.78171 73.2131 14.4592 67.4968 20.15 61.7719L24.4642 66.0526L7.43185 83.1785Z" fill="white"/>
<path d="M4.45223 61.9012L0 57.4767L15.4936 41.8976C16.9921 43.3868 18.5021 44.8817 19.9171 46.2847L4.45223 61.9012Z" fill="white"/>
<path d="M53.4468 110.786L48.9917 106.399L64.5544 90.7711L68.9433 95.1439L53.4468 110.786Z" fill="white"/>
</g>
<defs>
<clipPath id="clip0_249_3854">
<rect width="110" height="110" fill="white" transform="translate(0 0.786255)"/>
</clipPath>
</defs>
</svg>
