<svg width="10" height="8" viewBox="0 0 10 8" fill="none" xmlns="http://www.w3.org/2000/svg">
<path d="M9.22895 1.4945C8.90639 1.63743 8.55987 1.73401 8.19558 1.77766C8.57146 1.55275 8.85267 1.19877 8.98674 0.781771C8.63359 0.99153 8.2471 1.13918 7.84405 1.21829C7.57301 0.9289 7.21401 0.737085 6.82278 0.67263C6.43156 0.608174 6.03 0.674684 5.68045 0.861833C5.3309 1.04898 5.05291 1.3463 4.88965 1.70763C4.72639 2.06895 4.68699 2.47407 4.77756 2.86009C4.06201 2.82416 3.362 2.63817 2.72297 2.3142C2.08395 1.99023 1.52018 1.53551 1.06827 0.979558C0.913745 1.24611 0.824895 1.55515 0.824895 1.88428C0.824723 2.18058 0.897687 2.47233 1.03732 2.73366C1.17694 2.99499 1.37892 3.21782 1.62532 3.38237C1.33956 3.37328 1.06011 3.29606 0.810216 3.15716V3.18033C0.810187 3.5959 0.953933 3.99867 1.21706 4.32032C1.4802 4.64196 1.8465 4.86266 2.25384 4.94497C1.98875 5.01671 1.71082 5.02728 1.44105 4.97588C1.55598 5.33344 1.77984 5.64612 2.0813 5.87014C2.38276 6.09416 2.74673 6.2183 3.12225 6.22518C2.48478 6.72561 1.69751 6.99705 0.88709 6.99586C0.743532 6.9959 0.600095 6.98752 0.45752 6.97075C1.28015 7.49967 2.23774 7.78038 3.21573 7.77928C6.52636 7.77928 8.3362 5.0373 8.3362 2.65921C8.3362 2.58195 8.33427 2.50391 8.33079 2.42665C8.68283 2.17207 8.9867 1.85681 9.22818 1.49566L9.22895 1.4945Z" fill="white"/>
</svg>
