<svg width="87" height="111" viewBox="0 0 87 111" fill="none" xmlns="http://www.w3.org/2000/svg">
<g clip-path="url(#clip0_249_3867)">
<path d="M9.19442 46.5056C2.04188 45.43 -0.794108 41.1278 0.189367 32.7852H86.9998C86.8353 35.1549 86.9998 37.5749 86.4312 39.8121C85.5586 43.2861 83.0766 45.4085 79.554 46.2044C78.9925 46.3299 78.4203 46.398 77.7373 46.5127V48.101C77.7373 66.3495 77.7373 84.6003 77.7373 102.854C77.7373 107.794 74.9657 110.569 70.0232 110.569H16.8834C11.9625 110.569 9.198 107.776 9.198 102.821C9.198 84.6135 9.198 66.4068 9.198 48.2014L9.19442 46.5056ZM29.7222 43.4152C25.5809 47.3947 20.238 47.4592 16.1324 43.494C13.8042 44.3115 13.7077 46.104 13.7184 48.2121C13.7935 62.2982 13.7577 76.3843 13.7577 90.474V92.1447H73.1739V88.0505C73.1739 74.1424 73.1739 60.2344 73.1739 46.3263C73.1739 45.4838 73.0166 44.8923 72.2334 44.4656C71.7548 44.1423 71.3092 43.7724 70.903 43.3614C66.6687 47.4556 61.3258 47.3839 57.188 43.408C52.9287 47.3804 47.8146 47.4449 43.448 43.4438C39.1099 47.4413 33.9959 47.3983 29.7222 43.4152ZM43.4694 103.646C44.9428 103.646 46.4127 103.671 47.8861 103.646C49.2952 103.617 50.2465 102.735 50.3001 101.495C50.3537 100.254 49.3917 99.1394 47.9433 99.1143C44.956 99.0689 41.9674 99.0689 38.9776 99.1143C38.6742 99.1023 38.3715 99.1515 38.0875 99.2589C37.8034 99.3664 37.5437 99.53 37.3239 99.74C37.1041 99.95 36.9286 100.202 36.8079 100.481C36.6871 100.761 36.6235 101.061 36.6209 101.366C36.603 102.667 37.59 103.628 39.0527 103.66C40.5154 103.693 41.996 103.653 43.4694 103.653V103.646Z" fill="white"/>
<path d="M77.7376 14.2535H9.26632C9.26632 11.6005 9.05174 8.99406 9.31996 6.44142C9.68832 2.9423 12.6602 0.601191 16.3509 0.57251C22.4628 0.57251 28.5746 0.57251 34.69 0.57251H70.0165C74.9803 0.57251 77.7341 3.32233 77.7412 8.26986L77.7376 14.2535ZM43.3339 9.7326C44.8502 9.7326 46.3666 9.76128 47.8829 9.7326C49.3134 9.70034 50.2433 8.82556 50.3005 7.5815C50.3577 6.33745 49.4064 5.22605 47.9473 5.19737C44.9575 5.14479 41.969 5.14479 38.9816 5.19737C38.6668 5.185 38.3529 5.23852 38.0599 5.35453C37.7669 5.47053 37.5012 5.64646 37.2798 5.87111C37.0584 6.09576 36.8862 6.3642 36.774 6.6593C36.6618 6.95441 36.6122 7.2697 36.6284 7.58509C36.6892 8.8399 37.6262 9.70751 39.0495 9.73619C40.4729 9.76487 41.907 9.7326 43.3339 9.7326Z" fill="white"/>
<path d="M1.1875 27.9919C2.87908 25.4393 4.54562 23.0803 6.03693 20.6101C6.82013 19.3122 7.72493 18.8749 9.25557 18.8784C32.2296 18.931 55.2047 18.931 78.1811 18.8784C79.3613 18.8784 80.03 19.237 80.6451 20.2265C82.2545 22.8006 83.9639 25.3102 85.7521 27.9919H1.1875Z" fill="white"/>
<path d="M60.1849 71.5587H26.6431C26.779 71.003 26.8648 70.4831 27.0257 70.0135C29.1715 63.7143 33.463 59.7671 39.9289 58.2685C40.9195 58.039 41.2843 57.6841 41.1913 56.691C41.1269 56.0234 41.1557 55.3501 41.2772 54.6905C41.3424 54.175 41.6001 53.7035 41.9982 53.3709C42.3964 53.0383 42.9054 52.8693 43.4229 52.8979C44.5852 52.8979 45.3434 53.4966 45.6402 54.6403C45.6847 54.813 45.7135 54.9894 45.7261 55.1673C45.794 56.0923 45.5401 57.2539 46.0086 57.8741C46.427 58.4298 47.6501 58.3402 48.4905 58.6234C54.4987 60.6598 58.4218 64.7182 60.1313 70.8596C60.1721 71.0308 60.2019 71.2044 60.2207 71.3794C60.216 71.4404 60.204 71.5006 60.1849 71.5587Z" fill="white"/>
<path d="M43.3301 80.787C37.5747 80.787 31.8216 80.787 26.071 80.787C25.5388 80.8122 25.0059 80.7566 24.4903 80.6221C23.983 80.4942 23.542 80.1801 23.2546 79.742C22.9672 79.3038 22.8543 78.7735 22.9382 78.2559C22.9709 77.7345 23.1918 77.2428 23.5597 76.8727C23.9276 76.5025 24.4173 76.2793 24.9373 76.2446C25.2941 76.2146 25.6524 76.2062 26.0102 76.2195H60.9325C61.1971 76.2195 61.4653 76.2195 61.7336 76.2195C63.0318 76.302 63.9723 77.1875 64.0295 78.3706C64.0868 79.5537 63.1355 80.6221 61.7979 80.7548C61.4408 80.7787 61.0828 80.7847 60.7251 80.7727L43.3301 80.787Z" fill="white"/>
</g>
<defs>
<clipPath id="clip0_249_3867">
<rect width="87" height="110" fill="white" transform="translate(0 0.57251)"/>
</clipPath>
</defs>
</svg>
